<?xml version="1.0" encoding="iso-8859-1"?>
<!-- Generator: Adobe Illustrator 25.0.0, SVG Export Plug-In . SVG Version: 6.00 Build 0)  -->
<svg version="1.1" id="Layer_1" xmlns="http://www.w3.org/2000/svg" xmlns:xlink="http://www.w3.org/1999/xlink" x="0px" y="0px"
	 viewBox="0 0 243.493 117.136" style="enable-background:new 0 0 243.493 117.136;" xml:space="preserve">
<g>
	<path style="fill:#FFFFFF;" d="M92.862,63.469c1.116-16.558,4.147-35.114,5.236-46.859c1.089-11.745-8.439-19.46-14.167-9.36
		c-4.598,8.108-19.919,44.108-25.783,57.99c-0.449,1.064-2.038,0.694-1.974-0.459c0.457-8.169,1.279-23.252,1.835-35.563
		c0.806-17.841-1.985-26.772-9.985-29.004c-6.214-1.734-14.674,7.2-24.157,22.957c-0.007,0.012-0.014,0.021-0.021,0.033
		c-3.383,5.377-6.821,11.741-9.996,18.361c-2.508,5.079-4.488,9.617-6.041,13.714C2.49,68.529-0.9,80.829,0.211,86.381
		c2.047,10.233,20.279,8.902,20.279,8.902s-5.116-16.527,2.372-39.147c7.488-22.62,17.255-39.531,23.832-45.677
		c6.577-6.146,2.527,25.248,1.263,33.362c-1.263,8.114-6.802,35.479,7.33,35.564c9.708,0.058,15.872-18.264,21.567-36.017
		c2.57-7.966,9.264-26.274,11.611-29.489c0-0.001,0.001-0.001,0.001-0.001c0.925-1.171,1.305-0.655,1.322,0.99
		c-0.078,2.175-0.723,6.037-1.323,9.932c-0.098,0.638-0.134,1.126-0.121,1.496c-0.628,3.713-1.37,7.809-2.037,11.71
		c-2.791,16.341-9.149,42.435-1.484,48.368c7.666,5.933,18.456-5.043,18.456-5.043S91.745,80.027,92.862,63.469z"/>
	<path style="fill:#FFFFFF;" d="M243.479,65.381c0.003-0.071,0.011-0.138,0.013-0.209c0.003-0.106-0.005-0.2-0.003-0.305
		c0.001-0.187-0.002-0.38-0.005-0.573c-0.052-10.172-6.52-14.118-13.211-13.169c-6.884,0.977-7.687,7.984-7.687,7.984
		s-3.178-0.202-5.235,2.321c-2.058,2.523-4.056,7.148-14.167,13.616c-10.111,6.468-15.55,1.334-15.232-6.479
		c0.318-7.813,3.724-11.44,6.904-11.31c3.181,0.129,4.786,3.381,5.52,4.931c0,0,4.089-0.847,4.496-3.727s-4.142-6.758-10.648-7.022
		c-6.506-0.265-14.499,3.981-16.024,14.776c0,0-3.048,5.519-8.871,11.582c-5.822,6.063-12.936,2.949-9.019-4.349
		c3.917-7.299,6.719-10.298,6.466-12.988c-0.253-2.689-4.277-3.432-15.348-5.403c0,0,2.391-3.593,2.526-6.92
		c0.135-3.326-2.706-4.673-6.666-3.458c-3.96,1.215-5.968,4.319-6.095,7.427c-0.126,3.108,0.454,5.881,3.887,7.689
		c0,0-8.621,10.8-11.947,10.665c-3.329-0.135-2.367-6.329-1.457-10.624c0.624-2.945-0.213-6.068-2.403-8.134
		c-1.691-1.594-4.203-3.004-7.847-3.152c-8.747-0.356-13.994,5.803-16.657,10.763c-2.664,4.96-4.573,14.513,2.272,18.919
		c6.844,4.406,15.585-2.19,17.847-7.963c0,0,0.652,7.123,6.713,5.849c6.062-1.274,12.633-7.958,16.03-14.916
		c0,0,2.977,1.569,7.378,1.966c0,0-6.508,6.904-5.926,13.951c0.582,7.047,5.864,8.928,10.337,9.327
		c4.473,0.399,11.328-2.58,18.941-13.494c0,0,1.826,10.284,12.597,10.722c10.771,0.438,19.319-8.555,23.584-11.93
		c0,0,0.598,5.632,4.616,9.281c1.818,1.71,4.324,2.983,7.772,3.026c3.35,0.136,6.007-0.683,8.091-1.891
		c4.09-2.26,6.684-6.398,7.817-11.581c0.114-0.455,0.198-0.871,0.261-1.293C243.098,69.284,243.419,67.618,243.479,65.381z
		 M124.071,56.844c-0.327,1.194-0.953,3.074-2.122,5.558c-2.14,4.547-4.51,7.637-6.59,8.928c-2.08,1.291-3.647,0.648-3.169-3.967
		c0.477-4.615,5.775-13.812,8.757-14.126c0.166-0.017,0.323-0.026,0.474-0.028C123.272,53.191,124.56,55.058,124.071,56.844z
		 M147.659,53.382c0,0-1.17-1.496-0.203-3.918c0.968-2.423,1.671-2.435,1.974-2.237C150.135,47.691,149.198,51.128,147.659,53.382z
		 M227.064,68.288c0,0,2.009-6.67-2.469-8.735c0,0,1.335-2.552,3.937-2.446c2.602,0.106,5.929,1.988,5.547,11.381
		c-0.382,9.393-3.741,11.863-6.054,11.769c-2.313-0.094-4.512-3.008-4.383-6.188S225.525,68.749,227.064,68.288z"/>
	<g>
		<path style="fill:#FFFFFF;" d="M33.471,106.765v2.952h5.852v2.215h-5.852v4.682h-2.448V104.55h9.002v2.215H33.471z"/>
		<path style="fill:#FFFFFF;" d="M43.047,106.332c-0.847,0-1.44-0.594-1.44-1.387c0-0.773,0.63-1.422,1.44-1.422
			c0.81,0,1.44,0.648,1.44,1.422C44.488,105.738,43.857,106.332,43.047,106.332z M44.235,116.613h-2.376v-8.984h2.376V116.613z"/>
		<path style="fill:#FFFFFF;" d="M54.695,108.421c0.666,0.702,0.99,1.603,0.99,2.719v5.474h-2.377v-4.97
			c0-1.278-0.721-2.106-1.818-2.106c-1.495,0-2.233,1.026-2.233,3.097v3.979H46.88v-8.984h2.376v0.81
			c0.721-0.72,1.657-1.08,2.827-1.08C53.164,107.358,54.028,107.719,54.695,108.421z"/>
		<path style="fill:#FFFFFF;" d="M66.449,112.76h-6.843c0.234,1.278,1.152,2.089,2.251,2.089c1.026,0,1.765-0.396,2.232-1.188
			l2.125,0.45c-0.774,1.818-2.341,2.773-4.357,2.773c-1.296,0-2.395-0.45-3.277-1.333c-0.882-0.882-1.332-2.034-1.332-3.421
			s0.45-2.539,1.332-3.421c0.9-0.9,1.999-1.351,3.313-1.351c1.225,0,2.269,0.433,3.151,1.297c0.882,0.846,1.35,1.944,1.404,3.295
			V112.76z M59.678,111.086h4.34c-0.288-1.099-1.116-1.657-2.125-1.657C60.903,109.429,59.949,110.024,59.678,111.086z"/>
		<path style="fill:#FFFFFF;" d="M75.069,106.765v2.952h5.852v2.215h-5.852v4.682h-2.448V104.55h9.002v2.215H75.069z"/>
		<path style="fill:#FFFFFF;" d="M90.658,108.745c0.954,0.882,1.423,1.998,1.423,3.385s-0.469,2.521-1.423,3.403
			c-0.936,0.882-2.07,1.314-3.421,1.314c-1.368,0-2.521-0.433-3.475-1.314c-0.954-0.883-1.423-2.017-1.423-3.403
			s0.469-2.503,1.423-3.385c0.954-0.883,2.106-1.333,3.475-1.333C88.587,107.412,89.722,107.862,90.658,108.745z M89.001,114.074
			c0.522-0.504,0.774-1.152,0.774-1.944s-0.252-1.44-0.774-1.927c-0.522-0.504-1.099-0.756-1.765-0.756
			c-0.685,0-1.296,0.252-1.818,0.738s-0.774,1.134-0.774,1.944s0.252,1.458,0.774,1.944s1.134,0.738,1.818,0.738
			C87.903,114.813,88.479,114.561,89.001,114.074z"/>
		<path style="fill:#FFFFFF;" d="M101.476,108.745c0.954,0.882,1.423,1.998,1.423,3.385s-0.469,2.521-1.423,3.403
			c-0.936,0.882-2.07,1.314-3.421,1.314c-1.368,0-2.521-0.433-3.475-1.314c-0.954-0.883-1.423-2.017-1.423-3.403
			s0.469-2.503,1.423-3.385c0.954-0.883,2.106-1.333,3.475-1.333C99.406,107.412,100.541,107.862,101.476,108.745z M99.82,114.074
			c0.522-0.504,0.774-1.152,0.774-1.944s-0.252-1.44-0.774-1.927c-0.522-0.504-1.099-0.756-1.765-0.756
			c-0.685,0-1.296,0.252-1.818,0.738s-0.774,1.134-0.774,1.944s0.252,1.458,0.774,1.944s1.134,0.738,1.818,0.738
			C98.721,114.813,99.297,114.561,99.82,114.074z"/>
		<path style="fill:#FFFFFF;" d="M113.734,103.65v12.964h-2.377v-0.702c-0.81,0.648-1.8,0.973-2.971,0.973
			c-1.188,0-2.215-0.45-3.097-1.351s-1.314-2.035-1.314-3.403s0.433-2.503,1.314-3.403c0.882-0.918,1.927-1.368,3.097-1.368
			c1.188,0,2.179,0.324,2.971,0.99v-4.699H113.734z M110.584,114.074c0.521-0.504,0.773-1.152,0.773-1.944s-0.252-1.44-0.773-1.944
			c-0.522-0.504-1.116-0.757-1.783-0.757c-1.458,0-2.521,1.062-2.521,2.701s1.062,2.683,2.521,2.683
			C109.467,114.813,110.061,114.561,110.584,114.074z"/>
		<path style="fill:#FFFFFF;" d="M117.89,113.75c0.108,0.811,0.721,1.225,1.855,1.225c0.863,0,1.404-0.378,1.404-0.9
			c0-0.396-0.324-0.666-0.99-0.81l-1.837-0.379c-1.639-0.342-2.539-1.26-2.539-2.557c0-1.746,1.44-2.971,3.673-2.971
			c2.089,0,3.602,1.08,3.907,2.665l-2.269,0.45c-0.09-0.738-0.756-1.242-1.71-1.242c-0.864,0-1.225,0.396-1.225,0.882
			c0,0.378,0.271,0.63,0.811,0.756l2.143,0.469c1.53,0.342,2.358,1.296,2.358,2.539c0,1.944-1.549,3.007-3.943,3.007
			c-1.062,0-1.98-0.217-2.736-0.648c-0.757-0.45-1.188-1.116-1.297-1.999L117.89,113.75z"/>
		<path style="fill:#FFFFFF;" d="M139.258,117.136l-1.62-1.423c-0.937,0.774-2.106,1.171-3.511,1.171
			c-1.44,0-2.611-0.343-3.493-1.045c-0.883-0.702-1.314-1.62-1.314-2.772c0-1.297,0.684-2.305,2.053-3.043
			c-0.576-0.721-0.864-1.53-0.864-2.413c0-0.99,0.36-1.782,1.08-2.395c0.738-0.63,1.656-0.937,2.755-0.937
			c2.215,0,3.565,1.351,3.854,3.439l-2.233,0.396c-0.09-1.225-0.63-1.837-1.62-1.837c-0.918,0-1.549,0.504-1.549,1.387
			c0,0.773,0.36,1.313,1.566,2.34l2.863,2.503c0.108-0.378,0.162-0.792,0.162-1.26v-0.919h2.106v0.919
			c0,1.044-0.18,1.962-0.558,2.772l1.729,1.513L139.258,117.136z M136.018,114.273l-3.241-2.862
			c-0.756,0.432-1.135,0.99-1.135,1.656c0,1.098,0.99,1.818,2.485,1.818C134.83,114.885,135.459,114.687,136.018,114.273z"/>
		<path style="fill:#FFFFFF;" d="M151.983,109.573h6.608c0.036,0.414,0.054,0.774,0.054,1.044c0,1.801-0.576,3.295-1.729,4.483
			s-2.61,1.783-4.394,1.783c-1.801,0-3.312-0.612-4.555-1.819c-1.243-1.206-1.855-2.7-1.855-4.483c0-1.764,0.612-3.259,1.837-4.465
			c1.225-1.225,2.719-1.837,4.501-1.837c1.333,0,2.521,0.307,3.584,0.937c1.062,0.63,1.8,1.53,2.214,2.701l-2.196,0.774
			c-0.738-1.405-1.927-2.107-3.602-2.107c-1.08,0-1.998,0.379-2.736,1.152c-0.738,0.774-1.116,1.711-1.116,2.845
			c0,1.135,0.378,2.089,1.152,2.863s1.71,1.152,2.845,1.152c1.818,0,3.205-1.062,3.619-2.791h-4.231V109.573z"/>
		<path style="fill:#FFFFFF;" d="M166.851,107.574l-0.126,2.287h-0.522c-2.143,0-3.205,1.278-3.205,3.854v2.898h-2.376v-8.984h2.376
			v1.639c0.811-1.171,1.891-1.765,3.224-1.765C166.491,107.503,166.707,107.521,166.851,107.574z"/>
		<path style="fill:#FFFFFF;" d="M175.851,108.745c0.954,0.882,1.423,1.998,1.423,3.385s-0.469,2.521-1.423,3.403
			c-0.936,0.882-2.07,1.314-3.421,1.314c-1.368,0-2.521-0.433-3.475-1.314c-0.954-0.883-1.423-2.017-1.423-3.403
			s0.469-2.503,1.423-3.385c0.954-0.883,2.106-1.333,3.475-1.333C173.781,107.412,174.916,107.862,175.851,108.745z
			 M174.195,114.074c0.522-0.504,0.774-1.152,0.774-1.944s-0.252-1.44-0.774-1.927c-0.522-0.504-1.099-0.756-1.765-0.756
			c-0.685,0-1.296,0.252-1.818,0.738s-0.774,1.134-0.774,1.944s0.252,1.458,0.774,1.944s1.134,0.738,1.818,0.738
			C173.096,114.813,173.672,114.561,174.195,114.074z"/>
		<path style="fill:#FFFFFF;" d="M185.463,112.958l2.196,0.559c-0.252,1.026-0.792,1.836-1.639,2.448
			c-0.828,0.612-1.782,0.919-2.862,0.919c-1.351,0-2.484-0.45-3.421-1.333c-0.918-0.882-1.387-2.034-1.387-3.421
			s0.469-2.539,1.387-3.421c0.937-0.9,2.07-1.351,3.421-1.351c1.062,0,1.999,0.307,2.809,0.918c0.828,0.595,1.387,1.405,1.692,2.396
			l-2.286,0.647c-0.307-1.188-1.045-1.782-2.215-1.782c-1.494,0-2.503,1.062-2.503,2.593s1.009,2.575,2.503,2.575
			C184.311,114.705,185.085,114.129,185.463,112.958z"/>
		<path style="fill:#FFFFFF;" d="M197.938,112.76h-6.843c0.234,1.278,1.152,2.089,2.251,2.089c1.026,0,1.765-0.396,2.232-1.188
			l2.125,0.45c-0.774,1.818-2.341,2.773-4.357,2.773c-1.296,0-2.395-0.45-3.276-1.333c-0.883-0.882-1.333-2.034-1.333-3.421
			s0.45-2.539,1.333-3.421c0.899-0.9,1.998-1.351,3.312-1.351c1.225,0,2.269,0.433,3.151,1.297c0.882,0.846,1.35,1.944,1.404,3.295
			V112.76z M191.167,111.086h4.34c-0.288-1.099-1.117-1.657-2.125-1.657C192.392,109.429,191.438,110.024,191.167,111.086z"/>
		<path style="fill:#FFFFFF;" d="M205.964,107.574l-0.126,2.287h-0.522c-2.143,0-3.205,1.278-3.205,3.854v2.898h-2.376v-8.984h2.376
			v1.639c0.811-1.171,1.891-1.765,3.224-1.765C205.604,107.503,205.82,107.521,205.964,107.574z"/>
		<path style="fill:#FFFFFF;" d="M208.772,106.332c-0.847,0-1.44-0.594-1.44-1.387c0-0.773,0.63-1.422,1.44-1.422
			c0.81,0,1.44,0.648,1.44,1.422C210.212,105.738,209.582,106.332,208.772,106.332z M209.959,116.613h-2.376v-8.984h2.376V116.613z"
			/>
		<path style="fill:#FFFFFF;" d="M221.085,112.76h-6.843c0.234,1.278,1.152,2.089,2.251,2.089c1.026,0,1.765-0.396,2.232-1.188
			l2.125,0.45c-0.774,1.818-2.341,2.773-4.357,2.773c-1.296,0-2.395-0.45-3.277-1.333c-0.882-0.882-1.332-2.034-1.332-3.421
			s0.45-2.539,1.332-3.421c0.9-0.9,1.999-1.351,3.313-1.351c1.225,0,2.269,0.433,3.151,1.297c0.882,0.846,1.35,1.944,1.404,3.295
			V112.76z M214.315,111.086h4.34c-0.288-1.099-1.116-1.657-2.125-1.657C215.54,109.429,214.585,110.024,214.315,111.086z"/>
		<path style="fill:#FFFFFF;" d="M224.521,113.75c0.108,0.811,0.721,1.225,1.855,1.225c0.863,0,1.404-0.378,1.404-0.9
			c0-0.396-0.324-0.666-0.99-0.81l-1.837-0.379c-1.639-0.342-2.539-1.26-2.539-2.557c0-1.746,1.44-2.971,3.673-2.971
			c2.089,0,3.602,1.08,3.907,2.665l-2.269,0.45c-0.09-0.738-0.756-1.242-1.71-1.242c-0.864,0-1.225,0.396-1.225,0.882
			c0,0.378,0.271,0.63,0.811,0.756l2.143,0.469c1.53,0.342,2.358,1.296,2.358,2.539c0,1.944-1.549,3.007-3.943,3.007
			c-1.062,0-1.98-0.217-2.736-0.648c-0.757-0.45-1.188-1.116-1.297-1.999L224.521,113.75z"/>
	</g>
</g>
<g>
</g>
<g>
</g>
<g>
</g>
<g>
</g>
<g>
</g>
<g>
</g>
</svg>
