<svg xmlns="http://www.w3.org/2000/svg" width="38.05" height="40" viewBox="0 0 38.05 40"><defs><style>.a{fill:#bd742c;}</style></defs><g transform="translate(-12.479 0)"><g transform="translate(12.479 0)"><path class="a" d="M50.529,7.264H41.308A4.646,4.646,0,0,0,34.985.719c-.548.347-1.462,1.158-3.07,4.182-.144.271-.281.537-.411.792-.13-.255-.267-.521-.411-.792-1.608-3.024-2.522-3.835-3.07-4.182A4.649,4.649,0,0,0,21.7,7.264H12.479V18.609h1.37V40H49.159V18.609h1.37V7.264ZM36.238,2.7a2.286,2.286,0,0,1,1.228-.358,2.348,2.348,0,0,1,.509.056A2.3,2.3,0,0,1,38.7,6.591c-.645.409-3.011.637-5.367.673C34.374,5.149,35.593,3.109,36.238,2.7Zm-12.646.713A2.293,2.293,0,0,1,25.033,2.4a2.348,2.348,0,0,1,.509-.056A2.287,2.287,0,0,1,26.77,2.7c.645.409,1.863,2.449,2.9,4.564-1.177-.018-2.358-.084-3.324-.2a5.967,5.967,0,0,1-2.042-.477,2.3,2.3,0,0,1-.714-3.177Zm3.17,34.243H16.193V18.609H26.762Zm0-21.391H14.823V9.608H26.762v6.657ZM33.9,37.656h-4.8V9.608h4.8Zm12.912,0H36.246V18.609H46.815Zm1.37-21.391H36.246V9.608H48.185Z" transform="translate(-12.479 0)"/></g></g></svg>