<svg xmlns="http://www.w3.org/2000/svg" width="439.698" height="211.524" viewBox="0 0 439.698 211.524"><defs><style>.a{fill:#005640;}.b{fill:#c7893e;}</style></defs><g transform="translate(0 0)"><path class="a" d="M167.69,114.613c2.016-29.9,7.489-63.408,9.455-84.619s-15.24-35.141-25.582-16.9c-8.3,14.641-35.97,79.65-46.559,104.718a1.857,1.857,0,0,1-3.564-.829c.824-14.751,2.31-41.989,3.313-64.219C106.209,20.544,101.169,4.417,86.723.386c-11.222-3.132-26.5,13-43.624,41.456l-.038.059A338.4,338.4,0,0,0,25.011,75.057c-4.529,9.171-8.1,17.368-10.908,24.765C4.5,123.75-1.625,145.961.381,155.987,4.076,174.465,37,172.063,37,172.063s-9.239-29.845,4.284-70.692S72.443,29.986,84.32,18.888,88.884,64.48,86.6,79.133,74.32,143.2,99.839,143.355c17.532.105,28.662-32.981,38.944-65.038,4.641-14.385,16.729-47.446,20.968-53.252,0,0,0,0,0,0,1.671-2.114,2.356-1.182,2.388,1.789-.141,3.928-1.307,10.9-2.39,17.934a14.984,14.984,0,0,0-.218,2.7c-1.134,6.706-2.474,14.1-3.677,21.145-5.04,29.509-16.522,76.63-2.679,87.344s33.329-9.107,33.329-9.107S165.674,144.513,167.69,114.613Z" transform="translate(0 0)"/><path class="a" d="M367.449,86.844c0-.128.02-.25.023-.378,0-.19-.008-.361,0-.55,0-.338,0-.686-.01-1.034-.094-18.367-11.773-25.5-23.855-23.781-12.43,1.763-13.881,14.418-13.881,14.418a12.125,12.125,0,0,0-9.454,4.193c-3.715,4.555-7.325,12.909-25.582,24.587s-28.079,2.408-27.506-11.7,6.724-20.657,12.468-20.424,8.643,6.1,9.968,8.9c0,0,7.385-1.53,8.119-6.73s-7.481-12.2-19.228-12.681-26.183,7.188-28.936,26.682a112.049,112.049,0,0,1-16.018,20.915c-10.514,10.948-23.361,5.325-16.286-7.853s12.133-18.6,11.676-23.453-7.724-6.2-27.716-9.757c0,0,4.317-6.489,4.562-12.5s-4.887-8.439-12.038-6.244-10.778,7.8-11.007,13.413.819,10.621,7.019,13.884c0,0-15.568,19.5-21.573,19.259s-4.275-11.429-2.631-19.183a15.685,15.685,0,0,0-4.34-14.689,21.246,21.246,0,0,0-14.172-5.691c-15.8-.642-25.27,10.478-30.08,19.436s-8.257,26.207,4.1,34.164,28.143-3.955,32.229-14.38c0,0,1.177,12.862,12.123,10.562s22.813-14.37,28.947-26.935a38.6,38.6,0,0,0,13.323,3.549s-11.752,12.468-10.7,25.193,10.59,16.122,18.666,16.842,20.457-4.66,34.2-24.367c0,0,3.3,18.571,22.749,19.362s34.886-15.449,42.587-21.542c0,0,1.08,10.171,8.336,16.759a20.127,20.127,0,0,0,14.035,5.465,26.375,26.375,0,0,0,14.61-3.416c7.385-4.081,12.07-11.553,14.116-20.913.205-.822.358-1.573.471-2.334A48.6,48.6,0,0,0,367.449,86.844ZM151.823,71.426a62.925,62.925,0,0,1-3.833,10.036c-3.864,8.211-8.145,13.791-11.9,16.122s-6.586,1.17-5.724-7.162,10.429-24.942,15.813-25.508c.3-.031.584-.048.857-.051A5.123,5.123,0,0,1,151.823,71.426Zm42.6-6.249s-2.113-2.7-.366-7.075,3.017-4.4,3.564-4.04C198.889,54.9,197.2,61.106,194.418,65.177Zm143.39,26.915s3.628-12.044-4.458-15.774c0,0,2.41-4.609,7.11-4.417s10.706,3.59,10.017,20.552-6.755,21.422-10.933,21.253-8.147-5.43-7.914-11.174S335.029,92.926,337.808,92.092Z" transform="translate(72.225 31.222)"/><g transform="translate(56.021 186.944)"><path class="b" d="M38.548,119.01v5.332H49.114v4H38.548v8.454H34.127V115.011H50.383v4H38.548Z" transform="translate(-34.127 -113.158)"/><path class="b" d="M48.371,118.953a2.469,2.469,0,0,1-2.6-2.5,2.6,2.6,0,0,1,5.2,0A2.508,2.508,0,0,1,48.371,118.953Zm2.146,18.566H46.225V121.3h4.291Z" transform="translate(-26.658 -113.882)"/><path class="b" d="M65.682,120.018a6.812,6.812,0,0,1,1.788,4.91v9.884H63.177v-8.974c0-2.308-1.3-3.8-3.283-3.8-2.7,0-4.033,1.853-4.033,5.593v7.187H51.57V118.59h4.291v1.463a6.892,6.892,0,0,1,5.105-1.95A6.189,6.189,0,0,1,65.682,120.018Z" transform="translate(-22.936 -111.175)"/><path class="b" d="M79.59,127.854H67.234a4.231,4.231,0,0,0,4.064,3.772,4.324,4.324,0,0,0,4.032-2.146l3.838.813a8.6,8.6,0,0,1-13.786,2.6,9.136,9.136,0,0,1,0-12.354,8.121,8.121,0,0,1,5.983-2.439,7.837,7.837,0,0,1,5.691,2.343,8.371,8.371,0,0,1,2.536,5.951v1.459Zm-12.226-3.022H75.2a3.779,3.779,0,0,0-3.838-2.993A4.026,4.026,0,0,0,67.363,124.831Z" transform="translate(-15.618 -111.175)"/><path class="b" d="M84.308,119.01v5.332H94.874v4H84.308v8.454H79.887V115.011H96.143v4H84.308Z" transform="translate(-4.769 -113.158)"/><path class="b" d="M105.6,120.567a7.905,7.905,0,0,1,2.569,6.111,7.987,7.987,0,0,1-2.569,6.146,8.643,8.643,0,0,1-6.177,2.374,8.878,8.878,0,0,1-6.274-2.374,8.595,8.595,0,0,1,0-12.257,8.9,8.9,0,0,1,6.274-2.407A8.656,8.656,0,0,1,105.6,120.567Zm-2.991,9.623a4.65,4.65,0,0,0,1.4-3.511,4.534,4.534,0,0,0-1.4-3.48,4.445,4.445,0,0,0-3.186-1.364,4.7,4.7,0,0,0-3.283,1.333,5.107,5.107,0,0,0,0,7.023,4.7,4.7,0,0,0,3.283,1.333A4.534,4.534,0,0,0,102.607,130.189Z" transform="translate(2.09 -111.137)"/><path class="b" d="M117.5,120.567a7.905,7.905,0,0,1,2.569,6.111,7.987,7.987,0,0,1-2.569,6.146,8.643,8.643,0,0,1-6.177,2.374,8.878,8.878,0,0,1-6.274-2.374,8.595,8.595,0,0,1,0-12.257,8.9,8.9,0,0,1,6.274-2.407A8.656,8.656,0,0,1,117.5,120.567Zm-2.991,9.623a4.65,4.65,0,0,0,1.4-3.511,4.534,4.534,0,0,0-1.4-3.48,4.445,4.445,0,0,0-3.186-1.364,4.7,4.7,0,0,0-3.283,1.333,5.107,5.107,0,0,0,0,7.023,4.7,4.7,0,0,0,3.283,1.333A4.534,4.534,0,0,0,114.508,130.189Z" transform="translate(9.725 -111.137)"/><path class="b" d="M132,114.02v23.41h-4.293v-1.267a8.315,8.315,0,0,1-5.365,1.756,7.569,7.569,0,0,1-5.593-2.439,9.144,9.144,0,0,1,0-12.292,7.536,7.536,0,0,1,5.593-2.471,8.046,8.046,0,0,1,5.365,1.788V114.02Zm-5.69,18.825a5.111,5.111,0,0,0,0-7.023,4.519,4.519,0,0,0-3.221-1.367c-2.633,0-4.552,1.919-4.552,4.877s1.919,4.844,4.552,4.844A4.6,4.6,0,0,0,126.312,132.845Z" transform="translate(17.359 -113.793)"/><path class="b" d="M131.376,129.642c.2,1.464,1.3,2.211,3.35,2.211,1.559,0,2.536-.683,2.536-1.625,0-.714-.586-1.2-1.788-1.463l-3.318-.684c-2.96-.617-4.585-2.275-4.585-4.616,0-3.153,2.6-5.365,6.632-5.365,3.772,0,6.5,1.95,7.055,4.813l-4.1.813c-.163-1.333-1.364-2.242-3.088-2.242-1.561,0-2.211.714-2.211,1.592q0,1.024,1.464,1.364l3.869.847c2.763.617,4.258,2.341,4.258,4.585,0,3.511-2.8,5.43-7.121,5.43a9.833,9.833,0,0,1-4.941-1.17,4.65,4.65,0,0,1-2.343-3.61Z" transform="translate(25.489 -111.176)"/><path class="b" d="M160.206,137.929l-2.925-2.569a9.623,9.623,0,0,1-6.34,2.114,9.852,9.852,0,0,1-6.309-1.886,6.056,6.056,0,0,1-2.374-5.007c0-2.342,1.234-4.161,3.707-5.494a6.823,6.823,0,0,1-1.561-4.358,5.39,5.39,0,0,1,1.95-4.324,7.386,7.386,0,0,1,4.976-1.691c4,0,6.438,2.439,6.959,6.212l-4.033.716q-.244-3.317-2.925-3.318c-1.658,0-2.8.909-2.8,2.5,0,1.4.65,2.372,2.828,4.225l5.171,4.519a8.2,8.2,0,0,0,.292-2.275v-1.66h3.8v1.66a11.7,11.7,0,0,1-1.006,5.007l3.121,2.732Zm-5.852-5.171-5.854-5.169a3.445,3.445,0,0,0-2.049,2.991c0,1.981,1.788,3.283,4.488,3.283A5.555,5.555,0,0,0,154.354,132.758Z" transform="translate(35.246 -113.348)"/><path class="b" d="M171.332,124.273h11.934c.066.747.1,1.4.1,1.885a11.163,11.163,0,0,1-3.121,8.1,10.562,10.562,0,0,1-7.934,3.221,11.353,11.353,0,0,1-8.224-3.285,11.458,11.458,0,0,1-.033-16.159,11.036,11.036,0,0,1,8.127-3.318,12.414,12.414,0,0,1,6.473,1.691,8.981,8.981,0,0,1,4,4.877l-3.966,1.4a6.786,6.786,0,0,0-6.5-3.805,6.561,6.561,0,0,0-4.941,2.081,7.143,7.143,0,0,0-2.016,5.136,7.012,7.012,0,0,0,2.081,5.171,6.935,6.935,0,0,0,5.136,2.081,6.4,6.4,0,0,0,6.535-5.04h-7.641v-4.032Z" transform="translate(47.099 -113.349)"/><path class="b" d="M187.942,118.388l-.228,4.13h-.944c-3.869,0-5.788,2.308-5.788,6.959v5.233h-4.291V118.487h4.291v2.96a6.793,6.793,0,0,1,5.821-3.186A3.506,3.506,0,0,1,187.942,118.388Z" transform="translate(57.336 -111.073)"/><path class="b" d="M199.316,120.567a7.905,7.905,0,0,1,2.569,6.111,7.987,7.987,0,0,1-2.569,6.146,8.643,8.643,0,0,1-6.177,2.374,8.878,8.878,0,0,1-6.274-2.374,8.595,8.595,0,0,1,0-12.257,8.9,8.9,0,0,1,6.274-2.407A8.659,8.659,0,0,1,199.316,120.567Zm-2.991,9.623a4.65,4.65,0,0,0,1.4-3.511,4.534,4.534,0,0,0-1.4-3.48,4.444,4.444,0,0,0-3.186-1.364,4.7,4.7,0,0,0-3.283,1.333,5.107,5.107,0,0,0,0,7.023,4.7,4.7,0,0,0,3.283,1.333A4.539,4.539,0,0,0,196.325,130.189Z" transform="translate(62.215 -111.137)"/><path class="b" d="M209.04,128.212l3.966,1.008a7.448,7.448,0,0,1-2.96,4.421,8.462,8.462,0,0,1-5.169,1.66,8.666,8.666,0,0,1-6.177-2.407,8.873,8.873,0,0,1,0-12.354,8.564,8.564,0,0,1,6.177-2.439,8.454,8.454,0,0,1,8.129,5.983l-4.128,1.169a3.812,3.812,0,0,0-4-3.219,4.669,4.669,0,0,0,0,9.332A4.064,4.064,0,0,0,209.04,128.212Z" transform="translate(69.849 -111.176)"/><path class="b" d="M224.236,127.854H211.88a4.231,4.231,0,0,0,4.064,3.772,4.324,4.324,0,0,0,4.032-2.146l3.838.813a8.6,8.6,0,0,1-13.784,2.6,9.131,9.131,0,0,1,0-12.354,8.114,8.114,0,0,1,5.982-2.439,7.837,7.837,0,0,1,5.691,2.343,8.371,8.371,0,0,1,2.536,5.951v1.459Zm-12.226-3.022h7.837a3.78,3.78,0,0,0-3.838-2.993A4.025,4.025,0,0,0,212.009,124.831Z" transform="translate(77.18 -111.175)"/><path class="b" d="M230.969,118.388l-.228,4.13H229.8c-3.869,0-5.788,2.308-5.788,6.959v5.233h-4.291V118.487h4.291v2.96a6.792,6.792,0,0,1,5.821-3.186A3.506,3.506,0,0,1,230.969,118.388Z" transform="translate(84.94 -111.073)"/><path class="b" d="M230.678,118.953a2.469,2.469,0,0,1-2.6-2.5,2.6,2.6,0,0,1,5.2,0A2.51,2.51,0,0,1,230.678,118.953Zm2.144,18.566h-4.291V121.3h4.291Z" transform="translate(90.302 -113.882)"/><path class="b" d="M249.7,127.854H237.343a4.231,4.231,0,0,0,4.065,3.772,4.323,4.323,0,0,0,4.032-2.146l3.838.813a8.6,8.6,0,0,1-13.786,2.6,9.136,9.136,0,0,1,0-12.354,8.12,8.12,0,0,1,5.983-2.439,7.837,7.837,0,0,1,5.691,2.343,8.371,8.371,0,0,1,2.536,5.951v1.459Zm-12.226-3.022h7.837a3.779,3.779,0,0,0-3.838-2.993A4.026,4.026,0,0,0,237.472,124.831Z" transform="translate(93.516 -111.175)"/><path class="b" d="M248.676,129.642c.2,1.464,1.3,2.211,3.35,2.211,1.559,0,2.536-.683,2.536-1.625,0-.714-.586-1.2-1.788-1.463l-3.318-.684c-2.96-.617-4.585-2.275-4.585-4.616,0-3.153,2.6-5.365,6.632-5.365,3.772,0,6.5,1.95,7.055,4.813l-4.1.813c-.163-1.333-1.364-2.242-3.088-2.242-1.561,0-2.211.714-2.211,1.592q0,1.024,1.464,1.364l3.869.847c2.763.617,4.258,2.341,4.258,4.585,0,3.511-2.8,5.43-7.121,5.43a9.834,9.834,0,0,1-4.941-1.17,4.65,4.65,0,0,1-2.343-3.61Z" transform="translate(100.743 -111.176)"/></g></g></svg>