<svg xmlns="http://www.w3.org/2000/svg" width="340.5" height="68.17" viewBox="0 0 340.5 68.17"><defs><style>.a{fill:#3c3c3b;}</style></defs><g transform="translate(-228.123 -258.572)"><path class="a" d="M404.939,260.921H402.93V258.79h4.526v12.827h-2.517Z" transform="translate(-20.252 -0.025)"/><g transform="translate(392.262 258.572)"><path class="a" d="M424.561,265.178a4.1,4.1,0,1,0-4.089,4.406,4.046,4.046,0,0,0,4.089-4.406m-10.792,0a6.7,6.7,0,1,1,6.7,6.631,6.636,6.636,0,0,1-6.7-6.631" transform="translate(-413.769 -258.572)"/></g><path class="a" d="M435.322,260.921h-2.008V258.79h4.525v12.827h-2.517Z" transform="translate(-23.772 -0.025)"/><rect class="a" width="0.309" height="39.68" transform="translate(275.931 287.062)"/><rect class="a" width="0.309" height="39.68" transform="translate(398.759 287.062)"/><rect class="a" width="0.309" height="39.68" transform="translate(460.172 287.062)"/><rect class="a" width="0.309" height="39.68" transform="translate(521.586 287.062)"/><rect class="a" width="0.309" height="39.68" transform="translate(337.345 287.062)"/><path class="a" d="M228.123,293.017h.257l17.1,19.729,16.9-19.729h.257v35.75h-5.2V306.05l-11.951,14.268h-.259l-11.9-14.268v22.716h-5.2Z" transform="translate(0 -3.99)"/><g transform="translate(291.261 289.027)"><path class="a" d="M314.989,305.122l-5.821,13.856H320.7c.051,0-5.716-13.856-5.716-13.856M305.1,328.766h-5.564l15.351-35.749h.309l15.4,35.749h-5.821l-2.008-4.893h-15.66Z" transform="translate(-299.534 -293.017)"/></g><path class="a" d="M374.7,293.425h5.513v30.134H395.67v4.894H374.7Z" transform="translate(-16.982 -4.038)"/><rect class="a" width="5.513" height="35.026" transform="translate(426.864 289.388)"/><path class="a" d="M514.787,305.36v23.024h-5.15V292.843h.412l22.458,23.54V293.358h5.15V328.9h-.411Z" transform="translate(-32.614 -3.97)"/><g transform="translate(536.273 288.924)"><path class="a" d="M576.65,310.878A17.641,17.641,0,0,1,594.627,292.9c6.49,0,10.406,2.317,13.29,5.564l-3.812,3.6c-2.111-2.317-4.533-4.173-9.632-4.173-7.109,0-12.1,5.564-12.1,12.981s5.048,12.981,13.033,12.981a14.811,14.811,0,0,0,8.5-2.216v-3.965h-9.375v-4.895H609v11.488c-2.936,2.42-7.006,4.584-13.6,4.584-10.767,0-18.751-7.623-18.751-17.977" transform="translate(-576.65 -292.901)"/></g></g></svg>