<svg xmlns="http://www.w3.org/2000/svg" width="347.565" height="95.242" viewBox="0 0 347.565 95.242">
    <defs>
        <style>.a{fill:#e8e8e8;}</style>
    </defs>
    <g class="zynergy" transform="translate(-28.347 -28.346)">
        <g transform="translate(28.347 28.346)">
            <path class="a" d="M43.1,67.676,64.363,29.962a.194.194,0,0,0-.169-.289H31.069a.31.31,0,0,0-.31.31V45.656a.116.116,0,0,0,.228.033c.9-3.285,4.878-13.972,18.353-14.182a.2.2,0,0,1,.18.3L28.372,69.3a.194.194,0,0,0,.169.289H63.385a.31.31,0,0,0,.31-.31V53.267a.115.115,0,0,0-.222-.049c-1.116,2.789-6.613,14.525-20.2,14.755A.2.2,0,0,1,43.1,67.676Z" transform="translate(-28.347 -28.563)"/><path class="a" d="M181.23,29.89l.724.418a7.752,7.752,0,0,1,3.874,6.711v14.19a.194.194,0,0,1-.344.122L167.928,29.814a.387.387,0,0,0-.3-.142H151.666a.116.116,0,0,0-.059.217l.74.428a7.75,7.75,0,0,1,3.871,6.708l.006,25.211a7.75,7.75,0,0,1-3.874,6.713l-.74.428a.116.116,0,0,0,.059.217h11.935a.116.116,0,0,0,.059-.217l-.732-.422a7.75,7.75,0,0,1-3.874-6.711V38.661a.194.194,0,0,1,.341-.125l26.261,30.921a.386.386,0,0,0,.3.136h2.394a.31.31,0,0,0,.31-.31V37.028a7.751,7.751,0,0,1,3.874-6.711l.74-.428a.116.116,0,0,0-.059-.217H181.288A.116.116,0,0,0,181.23,29.89Z" transform="translate(-48.476 -28.563)"/><path class="a" d="M114.91,53.028l8.6-17.563c1.237-2.527,3.188-5.165,5.974-5.562.18-.026.151-.231.013-.231H116.938a.116.116,0,0,0-.059.217l1.462.845a3.875,3.875,0,0,1,1.54,5.06l-7.335,14.974a.194.194,0,0,1-.347,0l-7.47-14.952a3.875,3.875,0,0,1,1.527-5.087l1.453-.841a.116.116,0,0,0-.059-.217H85.2a.111.111,0,0,0-.056.207,18.855,18.855,0,0,1,7.092,7.714l8.877,17.836a7.752,7.752,0,0,1,.812,3.454v3.355a7.751,7.751,0,0,1-3.871,6.71l-.739.428a.116.116,0,0,0,.059.217h21.238a.116.116,0,0,0,.059-.217l-.7-.407a7.752,7.752,0,0,1-3.871-6.739l.022-5.823A7.747,7.747,0,0,1,114.91,53.028Z" transform="translate(-37.617 -28.563)"/><path class="a" d="M420.389,53.028l8.6-17.563c1.237-2.527,3.188-5.165,5.974-5.562.18-.026.151-.231.013-.231H422.417a.116.116,0,0,0-.059.217l1.462.845a3.875,3.875,0,0,1,1.54,5.06l-7.335,14.974a.194.194,0,0,1-.347,0l-7.47-14.952a3.875,3.875,0,0,1,1.527-5.087l1.453-.841a.116.116,0,0,0-.059-.217H390.682a.111.111,0,0,0-.056.207,18.854,18.854,0,0,1,7.092,7.714L406.6,55.431a7.752,7.752,0,0,1,.812,3.454v3.355a7.751,7.751,0,0,1-3.871,6.71l-.739.428a.116.116,0,0,0,.059.217h21.238a.116.116,0,0,0,.059-.217l-.7-.407a7.752,7.752,0,0,1-3.871-6.739l.022-5.823A7.76,7.76,0,0,1,420.389,53.028Z" transform="translate(-87.527 -28.563)"/><path class="a" d="M249.689,43.074V29.982a.31.31,0,0,0-.31-.31h-33.8a.116.116,0,0,0-.059.217l.738.427a7.751,7.751,0,0,1,3.871,6.71V62.24a7.751,7.751,0,0,1-3.871,6.71l-.738.427a.116.116,0,0,0,.059.217h33.8a.31.31,0,0,0,.31-.31V56.191a.113.113,0,0,0-.213-.052c-3.4,6.409-8.614,11.7-16.733,11.836a.322.322,0,0,1-.325-.318V49.794a.324.324,0,0,1,.33-.32c3.73.154,6.583,2.911,8.8,6.627a.113.113,0,0,0,.212-.055V41.4a.113.113,0,0,0-.212-.055c-2.217,3.716-5.07,6.473-8.8,6.627a.322.322,0,0,1-.33-.32V31.608a.323.323,0,0,1,.325-.318c8.119.137,13.33,5.427,16.733,11.836A.112.112,0,0,0,249.689,43.074Z" transform="translate(-58.918 -28.563)"/><path class="a" d="M356.449,51.407l.731.422a7.751,7.751,0,0,1,3.871,6.71V69.065a.12.12,0,0,1-.2.089c-11.772-9.972-16.215-21.64-16.88-31.216-.209-3.018,1.281-7.254,4.878-7.153,5.823.163,12.257,9.214,16.68,16.74a.19.19,0,0,0,.349-.052l4.141-15.5a.3.3,0,0,0-.152-.356,30.921,30.921,0,0,0-14.366-3.27c-14.793,0-20.681,11.591-20.681,20.571S340.16,70.486,357.5,70.486a23.953,23.953,0,0,0,15.088-5.01.3.3,0,0,0,.105-.233V51.5a.31.31,0,0,0-.31-.31H356.507A.117.117,0,0,0,356.449,51.407Z" transform="translate(-78.419 -28.346)"/><path class="a" d="M309.756,62.271l-6.194-9.75a.187.187,0,0,1,.094-.276,11.669,11.669,0,0,0,7.467-11.8,11.937,11.937,0,0,0-12.031-10.776H273.4a.116.116,0,0,0-.059.217l.738.427a7.75,7.75,0,0,1,3.871,6.71V62.24a7.751,7.751,0,0,1-3.871,6.71l-.738.427a.116.116,0,0,0,.059.217h21.392a.116.116,0,0,0,.059-.217l-.74-.428a7.751,7.751,0,0,1-3.871-6.708l0-9.21h1.738a.192.192,0,0,1,.167.1l8.411,14.533a3.875,3.875,0,0,0,3.354,1.934H317.2a.111.111,0,0,0,.044-.213A18.927,18.927,0,0,1,309.756,62.271ZM298.869,42.778a8.636,8.636,0,0,1-8.513,8.635.124.124,0,0,1-.124-.121V31.41a.124.124,0,0,1,.124-.121,8.636,8.636,0,0,1,8.513,8.635Z" transform="translate(-68.364 -28.563)"/></g><g transform="translate(142.546 112.596)"><path class="a" d="M173.115,132.1a2.781,2.781,0,0,1-.385,1.385,2.982,2.982,0,0,1-1.181,1.124,4.017,4.017,0,0,1-1.977.443H166.7v4.905h-1.855V129.167h4.724a4.1,4.1,0,0,1,1.969.435,2.92,2.92,0,0,1,1.19,1.114A2.786,2.786,0,0,1,173.115,132.1Zm-1.853-.016a2.76,2.76,0,0,0-.32-1.322,2.475,2.475,0,0,0-.836-.934,1.945,1.945,0,0,0-1.075-.336H166.7v5.233h2.33a1.91,1.91,0,0,0,1.075-.345,2.524,2.524,0,0,0,.836-.952A2.825,2.825,0,0,0,171.262,132.088Z" transform="translate(-164.847 -129.068)"/><path class="a" d="M191.794,139.961h-1.9l-.475-2.313a4.275,4.275,0,0,0-.813-1.871,1.788,1.788,0,0,0-1.336-.721h-1.936v4.905h-1.855V129.166H188.2a4.1,4.1,0,0,1,1.969.435,2.92,2.92,0,0,1,1.19,1.114,2.711,2.711,0,0,1-.263,3.151,3.118,3.118,0,0,1-1.894,1.091,2.977,2.977,0,0,1,1.313.837,2.479,2.479,0,0,1,.656,1.2Zm-6.463-5.233h2.33a1.911,1.911,0,0,0,1.075-.345,2.524,2.524,0,0,0,.836-.952,2.84,2.84,0,0,0,.32-1.344,2.76,2.76,0,0,0-.32-1.322,2.475,2.475,0,0,0-.836-.934,1.946,1.946,0,0,0-1.075-.336h-2.33Z" transform="translate(-167.891 -129.068)"/><path class="a" d="M212.874,134.545a5.34,5.34,0,0,1-.738,2.74,5.555,5.555,0,0,1-1.993,2.01,5.241,5.241,0,0,1-2.732.746,5.3,5.3,0,0,1-2.732-.737,5.518,5.518,0,0,1-1.993-2,5.515,5.515,0,0,1,0-5.512,5.531,5.531,0,0,1,1.993-2,5.3,5.3,0,0,1,2.732-.737,5.241,5.241,0,0,1,2.732.746,5.549,5.549,0,0,1,1.993,2.01A5.332,5.332,0,0,1,212.874,134.545Zm-1.936,0a7.525,7.525,0,0,0-.443-2.945,4.139,4.139,0,0,0-1.246-1.616,2.981,2.981,0,0,0-1.838-.59,2.938,2.938,0,0,0-1.837.59,4,4,0,0,0-1.255,1.616,10.185,10.185,0,0,0,0,5.89,4,4,0,0,0,1.255,1.616,2.923,2.923,0,0,0,1.837.607,2.976,2.976,0,0,0,1.838-.607,4.139,4.139,0,0,0,1.246-1.616A7.512,7.512,0,0,0,210.938,134.545Z" transform="translate(-170.909 -129.049)"/><path class="a" d="M232.119,132.1a2.781,2.781,0,0,1-.385,1.385,2.982,2.982,0,0,1-1.181,1.124,4.017,4.017,0,0,1-1.977.443h-2.87v4.905h-1.855V129.167h4.724a4.1,4.1,0,0,1,1.969.435,2.92,2.92,0,0,1,1.19,1.114A2.8,2.8,0,0,1,232.119,132.1Zm-1.853-.016a2.76,2.76,0,0,0-.32-1.322,2.475,2.475,0,0,0-.836-.934,1.945,1.945,0,0,0-1.075-.336H225.7v5.233h2.33a1.91,1.91,0,0,0,1.075-.345,2.53,2.53,0,0,0,.836-.952A2.835,2.835,0,0,0,230.266,132.088Z" transform="translate(-174.487 -129.068)"/><path class="a" d="M249.322,129.5h-4.97V134.4h3.741v.329h-3.741v4.905h4.97v.329H242.5V129.168h6.823Z" transform="translate(-177.534 -129.068)"/><path class="a" d="M268.013,139.961h-1.9l-.475-2.313a4.275,4.275,0,0,0-.813-1.871,1.788,1.788,0,0,0-1.336-.721H261.55v4.905H259.7V129.166h4.724a4.1,4.1,0,0,1,1.969.435,2.919,2.919,0,0,1,1.19,1.114,2.711,2.711,0,0,1-.263,3.151,3.118,3.118,0,0,1-1.894,1.091,2.977,2.977,0,0,1,1.313.837,2.479,2.479,0,0,1,.656,1.2Zm-6.463-5.233h2.33a1.91,1.91,0,0,0,1.075-.345,2.524,2.524,0,0,0,.836-.952,2.84,2.84,0,0,0,.32-1.344,2.76,2.76,0,0,0-.32-1.322,2.474,2.474,0,0,0-.836-.934,1.946,1.946,0,0,0-1.075-.336h-2.33Z" transform="translate(-180.343 -129.068)"/><path class="a" d="M285.975,129.166v.329h-3.232v10.467H280.89V129.495h-3.232v-.329Z" transform="translate(-183.278 -129.068)"/><path class="a" d="M305,129.166h.378l-3.986,7.185v3.61h-1.855v-3.61l-3.92-7.185h2.1l3.642,6.562Z" transform="translate(-186.213 -129.068)"/>
        </g>
    </g>
</svg>
