<svg xmlns="http://www.w3.org/2000/svg" width="247.365" height="276.045" viewBox="0 0 247.365 276.045"><defs><style>.a{fill:#3c3c3b;}.b{fill:#96694c;}</style></defs><g transform="translate(-28.347 -28.345)"><g transform="translate(137.824 151.663)"><path class="a" d="M197.193,300.371l81.366-144.287a.741.741,0,0,0-.646-1.105H151.185A1.186,1.186,0,0,0,150,156.164v59.96a.443.443,0,0,0,.87.127c3.459-12.566,18.664-53.451,70.214-54.256a.772.772,0,0,1,.689,1.13L140.863,306.6a.741.741,0,0,0,.646,1.105h133.3A1.186,1.186,0,0,0,276,306.519V245.243a.441.441,0,0,0-.847-.186c-4.269,10.672-25.3,55.568-77.269,56.449A.775.775,0,0,1,197.193,300.371Z" transform="translate(-140.767 -154.978)"/></g><g transform="translate(28.347 28.345)"><path class="b" d="M119.15,277.208l-2.08-.642,3.734-12.108,2.08.642Z" transform="translate(-30.67 -34.526)"/><path class="b" d="M102.269,270.926l4.864-11.7.356.148,4.606,12.2,3.644-8.766.356.148-4.864,11.7-.356-.148-4.606-12.2-3.644,8.766Z" transform="translate(-30.282 -34.389)"/><path class="b" d="M99.449,255.044a6.141,6.141,0,0,1,1.927,1.718,3.616,3.616,0,0,1,.777,2.264l-.353.156a3.4,3.4,0,0,0-.723-2.167,5.794,5.794,0,0,0-1.819-1.636,3.188,3.188,0,0,0-2.105-.481,2.1,2.1,0,0,0-1.515,1.135,2.027,2.027,0,0,0-.084,1.733,9.15,9.15,0,0,0,1.444,2.4,21.784,21.784,0,0,1,1.434,2.061,3.773,3.773,0,0,1,.55,1.572,2.59,2.59,0,0,1-.366,1.53,3.145,3.145,0,0,1-1.453,1.379,3.665,3.665,0,0,1-1.963.283,5.431,5.431,0,0,1-2.065-.69,5.3,5.3,0,0,1-1.853-1.732,3.626,3.626,0,0,1-.647-2.222l.37-.145a3.434,3.434,0,0,0,.6,2.143,4.836,4.836,0,0,0,1.683,1.6,3.643,3.643,0,0,0,2.109.573,1.8,1.8,0,0,0,1.447-1,1.563,1.563,0,0,0,.2-1.072,3.166,3.166,0,0,0-.464-1.135q-.367-.584-1.149-1.666l-.37-.519a10.6,10.6,0,0,1-1.582-2.817,2.7,2.7,0,0,1,.234-2.236A3.389,3.389,0,0,1,95.12,254.7a3.753,3.753,0,0,1,2.016-.4A5.333,5.333,0,0,1,99.449,255.044Z" transform="translate(-29.978 -34.26)"/><path class="b" d="M78.375,255.918a3.419,3.419,0,0,1-.354-1.879,3.155,3.155,0,0,1,1.922-2.627,3.488,3.488,0,0,1,1.9-.245,4.722,4.722,0,0,1,2.18.95l2.72,1.99,3.4-4.647,1.756,1.285L84.416,260.97,79.939,257.7A4.8,4.8,0,0,1,78.375,255.918Zm4.674-3.535a2.969,2.969,0,0,0-1.453.322,3.33,3.33,0,0,0-1.235,1.052,3.244,3.244,0,0,0-.613,1.472,2.911,2.911,0,0,0,.144,1.467,2.292,2.292,0,0,0,.785,1.063l2.208,1.615,3.627-4.958L84.306,252.8A2.247,2.247,0,0,0,83.049,252.383Z" transform="translate(-29.647 -34.133)"/><path class="b" d="M72.6,251.771l-1.639-1.432L79.3,240.8l1.638,1.432Z" transform="translate(-29.463 -33.907)"/><path class="b" d="M68.938,230.431l1.538,1.62-1.585,2.274a5.023,5.023,0,0,0-.937,2.2,2.112,2.112,0,0,0,.465,1.722l1.565,1.648,4.178-3.961,1.5,1.579-9.193,8.721-3.817-4.023a4.8,4.8,0,0,1-1.219-2.029,3.411,3.411,0,0,1-.011-1.914,3.176,3.176,0,0,1,2.894-2.32,3.66,3.66,0,0,1,2.46.732,3.5,3.5,0,0,1-.349-1.793,2.913,2.913,0,0,1,.49-1.527Zm.764,9.732-1.881-1.983a2.251,2.251,0,0,0-1.162-.637,2.978,2.978,0,0,0-1.486.056,3.323,3.323,0,0,0-1.4.814,3.234,3.234,0,0,0-.867,1.339,2.919,2.919,0,0,0-.121,1.469,2.291,2.291,0,0,0,.581,1.186l1.882,1.984Z" transform="translate(-29.209 -33.635)"/><path class="b" d="M51.459,227.96l3.5,4.671,4.61-3.45-2.631-3.515.309-.231,2.631,3.516,4.609-3.449-3.5-4.671.309-.231,4.8,6.414-10.143,7.593-4.8-6.414Z" transform="translate(-28.944 -33.378)"/><path class="b" d="M40.464,175.19a6.33,6.33,0,0,1,3.272,4.265,6.2,6.2,0,0,1-.152,3.317,6.462,6.462,0,0,1-1.789,2.793,6.467,6.467,0,0,1-6.316,1.4,6.457,6.457,0,0,1-2.8-1.776,6.2,6.2,0,0,1-1.54-2.943,6.272,6.272,0,0,1-.035-2.606,6.4,6.4,0,0,1,1-2.381l.337.182a5.865,5.865,0,0,0-.926,4.721,3.536,3.536,0,0,0,1.162,1.952,4.705,4.705,0,0,0,2.171,1.028,9,9,0,0,0,3.485-.249,8.987,8.987,0,0,0,3.264-1.247,4.7,4.7,0,0,0,1.534-1.848,3.536,3.536,0,0,0,.229-2.258,5.891,5.891,0,0,0-3.125-4.042Z" transform="translate(-28.416 -32.189)"/><path class="b" d="M29.353,163.02a6.537,6.537,0,0,1,2.15-2.533,6.4,6.4,0,0,1,6.408-.55,6.539,6.539,0,0,1,2.55,2.13,6.328,6.328,0,0,1,.559,6.386,6.465,6.465,0,0,1-2.14,2.533,6.481,6.481,0,0,1-6.448.554,6.478,6.478,0,0,1-2.541-2.131,6.334,6.334,0,0,1-.539-6.389Zm8.963-1.185a8.843,8.843,0,0,0-3.488-.223,8.862,8.862,0,0,0-3.4.815,4.862,4.862,0,0,0-1.765,1.62,3.493,3.493,0,0,0-.506,2.208,3.448,3.448,0,0,0,.875,2.09,4.724,4.724,0,0,0,2.015,1.306,9.01,9.01,0,0,0,3.487.212,9.023,9.023,0,0,0,3.4-.8,4.7,4.7,0,0,0,1.764-1.63,3.426,3.426,0,0,0,.525-2.211,3.482,3.482,0,0,0-.895-2.087A4.829,4.829,0,0,0,38.316,161.834Z" transform="translate(-28.357 -31.774)"/><path class="b" d="M40.709,152.578l.232-5.83.385.015-.317,8.006-12.661-.5.087-2.175Z" transform="translate(-28.347 -31.445)"/><path class="b" d="M41.668,140.3l.856-5.771.382.056-1.176,7.924L29.2,140.644l.319-2.152Z" transform="translate(-28.369 -31.125)"/><path class="b" d="M45.993,122.124l-3.974.591-1.412,5.165,3.1,2.6-.111.409-10.787-9.035,13.807-2.017ZM40.28,127.61l1.325-4.848-6.05.881Z" transform="translate(-28.464 -30.74)"/><path class="b" d="M46.208,105.717a3.2,3.2,0,0,1,2.047.136,2.977,2.977,0,0,1,1.094.783,3.889,3.889,0,0,1,.741,1.284,4.165,4.165,0,0,1,.2,1.718,7.007,7.007,0,0,1-.545,2.056l-1.856,4.5L36.171,111.37l1.665-4.041a6.239,6.239,0,0,1,.851-1.483,3.8,3.8,0,0,1,1.026-.951,3.257,3.257,0,0,1,1.229-.379,2.6,2.6,0,0,1,1.287.187,3.367,3.367,0,0,1,2.037,2.132A4.239,4.239,0,0,1,46.208,105.717ZM37.357,109.5l4.949,2.04.815-1.977a1.673,1.673,0,0,0-.192-1.631,3.224,3.224,0,0,0-1.528-1.222,3.477,3.477,0,0,0-1.941-.269,1.593,1.593,0,0,0-1.268,1.028Zm11.9-.21a3.986,3.986,0,0,0-1.819-1.447,3.428,3.428,0,0,0-2.157-.2,2.35,2.35,0,0,0-1.588,1.552l-1.027,2.492,5.7,2.349,1.021-2.474A2.276,2.276,0,0,0,49.253,109.294Z" transform="translate(-28.552 -30.339)"/><path class="b" d="M47.625,89.648a6.547,6.547,0,0,1,3.212-.846,6.4,6.4,0,0,1,5.569,3.217,6.534,6.534,0,0,1,.873,3.206,6.144,6.144,0,0,1-.844,3.215,6.21,6.21,0,0,1-2.355,2.343,6.461,6.461,0,0,1-3.2.851,6.468,6.468,0,0,1-5.6-3.236,6.475,6.475,0,0,1-.865-3.2,6.325,6.325,0,0,1,3.218-5.548Zm8.027,4.157a8.873,8.873,0,0,0-2.734-2.178,8.852,8.852,0,0,0-3.253-1.279,4.859,4.859,0,0,0-2.374.319,3.493,3.493,0,0,0-1.679,1.521,3.432,3.432,0,0,0-.478,2.214,4.69,4.69,0,0,0,.907,2.224A9.005,9.005,0,0,0,48.779,98.8a9,9,0,0,0,3.249,1.285,4.7,4.7,0,0,0,2.38-.327,3.43,3.43,0,0,0,1.7-1.511,3.482,3.482,0,0,0,.463-2.224A4.886,4.886,0,0,0,55.653,93.805Z" transform="translate(-28.767 -29.928)"/><path class="b" d="M67.795,81.777,66.434,83.55l-2.493-1.212a5.036,5.036,0,0,0-2.322-.58,2.1,2.1,0,0,0-1.628.728l-1.385,1.8L63.173,87.8,61.848,89.52,51.8,81.8l3.379-4.4a4.8,4.8,0,0,1,1.812-1.521,3.421,3.421,0,0,1,1.888-.31,3.267,3.267,0,0,1,1.567.632,3.307,3.307,0,0,1,1.177,1.865,3.653,3.653,0,0,1-.339,2.544A3.494,3.494,0,0,1,63,79.989a2.9,2.9,0,0,1,1.584.245ZM58.3,84.052l1.666-2.17a2.242,2.242,0,0,0,.447-1.246,2.952,2.952,0,0,0-.288-1.459,3.332,3.332,0,0,0-1.023-1.26,3.245,3.245,0,0,0-1.459-.646,2.918,2.918,0,0,0-1.469.109,2.29,2.29,0,0,0-1.081.76l-1.666,2.17Z" transform="translate(-28.961 -29.581)"/><path class="b" d="M76.742,72.484l-3.751-1.441-3.769,3.8,1.419,3.794-.3.3L65.4,65.765,78.411,70.8ZM69.07,74.451l3.54-3.57-5.7-2.209Z" transform="translate(-29.317 -29.325)"/><path class="b" d="M78.98,53.79l.242.3-2.941,2.4,7.761,9.524-1.688,1.375-7.76-9.525-2.941,2.4-.243-.3Z" transform="translate(-29.474 -29.011)"/><path class="b" d="M90.247,46.728l-4.9,3.165,3.123,4.837,3.688-2.381.209.322-3.689,2.382L91.8,59.89l4.9-3.165.208.324-6.731,4.344L83.307,50.748l6.73-4.345Z" transform="translate(-29.786 -28.818)"/><path class="b" d="M147.586,28.977l-5.807.56.553,5.731,4.37-.421.037.384-4.371.422.553,5.731,5.808-.559.037.384-7.974.768-1.216-12.612,7.975-.77Z" transform="translate(-31.259 -28.352)"/><path class="b" d="M158.425,33.838l4.061-5.321.481.008-4.336,5.682,4.076,6.986-2.543-.044-3.179-5.43-4.04,5.3-.481-.009,4.317-5.664-4.076-7,2.542.045Z" transform="translate(-31.596 -28.345)"/><path class="b" d="M177.62,30.229l-.052.382-3.759-.513-1.661,12.174-2.156-.294L171.653,29.8l-3.759-.512.052-.382Z" transform="translate(-32 -28.36)"/><path class="b" d="M189.048,45.97l-2.162-.561.141-2.768a5.019,5.019,0,0,0-.371-2.365,2.1,2.1,0,0,0-1.307-1.213l-2.2-.572L181.7,44.065l-2.106-.547,3.184-12.264,5.368,1.395a4.808,4.808,0,0,1,2.108,1.074,3.435,3.435,0,0,1,1.023,1.618,3.269,3.269,0,0,1,.028,1.69,3.3,3.3,0,0,1-1.256,1.812,3.666,3.666,0,0,1-2.474.681,3.485,3.485,0,0,1,1.244,1.338,2.908,2.908,0,0,1,.392,1.554Zm-5.8-7.853,2.647.687a2.24,2.24,0,0,0,1.321-.073,2.978,2.978,0,0,0,1.232-.835,3.35,3.35,0,0,0,.761-1.433,3.246,3.246,0,0,0,.026-1.6,2.916,2.916,0,0,0-.676-1.309,2.275,2.275,0,0,0-1.122-.7l-2.647-.687Z" transform="translate(-32.307 -28.421)"/><path class="b" d="M201.034,50.526,200.9,46.51l-4.967-1.994L192.992,47.3l-.393-.158,10.212-9.681.422,13.946Zm-4.8-6.3,4.666,1.871-.184-6.111Z" transform="translate(-32.647 -28.584)"/><path class="b" d="M220.06,46.914a6.56,6.56,0,0,1,.882,3.2,6.4,6.4,0,0,1-3.155,5.605,6.544,6.544,0,0,1-3.2.908,6.141,6.141,0,0,1-3.224-.809A6.21,6.21,0,0,1,209,53.493a6.462,6.462,0,0,1-.887-3.2,6.476,6.476,0,0,1,3.174-5.638,6.467,6.467,0,0,1,3.191-.9,6.333,6.333,0,0,1,5.584,3.153Zm-4.07,8.074a8.87,8.87,0,0,0,2.148-2.757,8.854,8.854,0,0,0,1.243-3.267,4.863,4.863,0,0,0-.345-2.372,3.487,3.487,0,0,0-1.54-1.66,3.445,3.445,0,0,0-2.22-.455,4.714,4.714,0,0,0-2.214.93,8.991,8.991,0,0,0-2.141,2.763,8.964,8.964,0,0,0-1.249,3.262,4.714,4.714,0,0,0,.353,2.376,3.437,3.437,0,0,0,1.531,1.679,3.492,3.492,0,0,0,2.228.437A4.85,4.85,0,0,0,215.99,54.988Z" transform="translate(-33.053 -28.749)"/><path class="b" d="M228.108,66.988l-1.786-1.342,1.183-2.507a5.011,5.011,0,0,0,.555-2.327,2.1,2.1,0,0,0-.746-1.619L225.5,57.827l-3.457,4.605-1.74-1.307,7.607-10.134,4.436,3.329a4.8,4.8,0,0,1,1.543,1.795,3.431,3.431,0,0,1,.33,1.885,3.263,3.263,0,0,1-.615,1.573,3.3,3.3,0,0,1-1.851,1.2,3.665,3.665,0,0,1-2.548-.312,3.493,3.493,0,0,1,.642,1.711,2.908,2.908,0,0,1-.227,1.586Zm-2.38-9.467,2.187,1.641a2.239,2.239,0,0,0,1.251.434,2.974,2.974,0,0,0,1.456-.3,3.337,3.337,0,0,0,1.248-1.038,3.219,3.219,0,0,0,.629-1.465,2.9,2.9,0,0,0-.127-1.468,2.286,2.286,0,0,0-.771-1.073l-2.187-1.642Z" transform="translate(-33.372 -28.938)"/><path class="b" d="M244.692,66.2a6.405,6.405,0,0,1,.078,3.275,6.294,6.294,0,0,1-4.427,4.585,6.411,6.411,0,0,1-3.274.036,6.3,6.3,0,0,1-2.9-1.624l-2.647-2.554,8.8-9.116,2.647,2.554A6.348,6.348,0,0,1,244.692,66.2Zm-6.715,6.954a4.621,4.621,0,0,0,1.594-.667,13.048,13.048,0,0,0,3.6-3.727,4.664,4.664,0,0,0,.613-1.618,5.137,5.137,0,0,0-.027-1.5,3.385,3.385,0,0,0-1.057-2.012l-1.081-1.042-8.267,8.562,1.081,1.042a3.383,3.383,0,0,0,2.046.986A5.122,5.122,0,0,0,237.977,73.153Z" transform="translate(-33.666 -29.195)"/><path class="b" d="M251.289,72.049l1.418,1.654-9.621,8.244L241.67,80.3Z" transform="translate(-33.931 -29.489)"/><path class="b" d="M262.081,86.226l-10.359,7.3-.223-.315,2.617-12.773L246.354,85.9l-.221-.314,10.359-7.3.223.315L254.1,91.378l7.761-5.466Z" transform="translate(-34.048 -29.653)"/><path class="b" d="M258.035,104.958l2.495-3.149-2.5-4.731-4.044.221-.2-.374,14.049-.788-8.691,10.916Zm.414-7.908,2.349,4.444,3.812-4.782Z" transform="translate(-34.249 -30.12)"/><path class="b" d="M264.108,119.518l-.792-2.089,2.342-1.482a5.022,5.022,0,0,0,1.716-1.669,2.108,2.108,0,0,0,.237-1.767l-.8-2.125-5.385,2.038-.77-2.034L272.5,105.9l1.964,5.187a4.8,4.8,0,0,1,.342,2.343,3.431,3.431,0,0,1-.73,1.769,3.276,3.276,0,0,1-1.361,1,3.312,3.312,0,0,1-2.206.022,3.659,3.659,0,0,1-1.985-1.628,3.5,3.5,0,0,1-.373,1.79,2.9,2.9,0,0,1-1.041,1.217Zm3.058-9.271.969,2.558a2.247,2.247,0,0,0,.824,1.036,2.961,2.961,0,0,0,1.394.524,3.348,3.348,0,0,0,1.61-.209,3.246,3.246,0,0,0,1.317-.9,2.915,2.915,0,0,0,.679-1.307,2.285,2.285,0,0,0-.077-1.32l-.97-2.557Z" transform="translate(-34.428 -30.375)"/><path class="b" d="M280.047,130.131l.106.43-9.309-2.526-4.114,1.014-.521-2.113,4.114-1.014,7.088-6.487L278,121.83l-6.456,5.993Z" transform="translate(-34.574 -30.73)"/><circle class="b" cx="1.973" cy="1.973" r="1.973" transform="translate(80.067 12.868)"/><circle class="b" cx="1.973" cy="1.973" r="1.973" transform="translate(15.972 171.264)"/></g></g></svg>