<?xml version="1.0" encoding="iso-8859-1"?>
<!-- Generator: Adobe Illustrator 25.0.0, SVG Export Plug-In . SVG Version: 6.00 Build 0)  -->
<svg version="1.1" id="Layer_1" xmlns="http://www.w3.org/2000/svg" xmlns:xlink="http://www.w3.org/1999/xlink" x="0px" y="0px"
	 viewBox="0 0 268.884 32.6" style="enable-background:new 0 0 268.884 32.6;" xml:space="preserve">
<g>
	<path style="fill:#FFFFFF;" d="M11.41,30.258L27.863,1.082c0.056-0.1-0.016-0.224-0.131-0.224H2.107c-0.132,0-0.24,0.107-0.24,0.24
		v12.125c0,0.105,0.148,0.127,0.176,0.026C2.742,10.707,5.817,2.44,16.241,2.277c0.117-0.002,0.197,0.127,0.139,0.228L0.02,31.518
		c-0.056,0.1,0.016,0.224,0.131,0.224h26.956c0.132,0,0.24-0.107,0.24-0.24V19.111c0-0.099-0.135-0.13-0.171-0.038
		c-0.863,2.158-5.116,11.237-15.625,11.415C11.433,30.49,11.353,30.36,11.41,30.258z"/>
	<path style="fill:#FFFFFF;" d="M102.702,1.026l0.56,0.324c1.855,1.071,2.997,3.05,2.997,5.192V17.52
		c0,0.141-0.177,0.204-0.266,0.095L92.411,0.969c-0.057-0.07-0.142-0.11-0.232-0.11H79.83c-0.092,0-0.125,0.122-0.045,0.168
		l0.573,0.331c1.853,1.071,2.994,3.049,2.995,5.189l0.004,19.504c0,2.142-1.142,4.122-2.997,5.193l-0.572,0.33
		c-0.08,0.046-0.047,0.168,0.045,0.168h9.234c0.092,0,0.125-0.122,0.045-0.168l-0.566-0.327c-1.855-1.071-2.997-3.05-2.997-5.192
		V7.812c0-0.14,0.174-0.203,0.264-0.097l20.317,23.921c0.057,0.067,0.141,0.106,0.229,0.106h1.852c0.132,0,0.24-0.107,0.24-0.24
		V6.549c0-2.142,1.142-4.121,2.997-5.192l0.573-0.331c0.08-0.046,0.047-0.168-0.045-0.168h-9.228
		C102.655,0.858,102.622,0.98,102.702,1.026z"/>
	<path style="fill:#FFFFFF;" d="M59.796,18.926l6.655-13.587c0.958-1.955,2.466-3.996,4.622-4.303
		c0.139-0.02,0.116-0.178,0.01-0.178l-9.719,0c-0.092,0-0.125,0.122-0.045,0.168l1.131,0.654c1.364,0.789,1.885,2.499,1.192,3.914
		l-5.674,11.584c-0.055,0.111-0.213,0.112-0.269,0.001L51.919,5.611C51.21,4.194,51.728,2.47,53.1,1.676l1.125-0.65
		c0.08-0.046,0.047-0.168-0.045-0.168l-17.365,0c-0.091,0-0.121,0.114-0.044,0.161c2.354,1.43,4.258,3.498,5.487,5.968l6.868,13.799
		c0.413,0.83,0.628,1.745,0.628,2.672v2.595c0,2.141-1.141,4.119-2.995,5.191l-0.572,0.331c-0.08,0.046-0.047,0.168,0.045,0.168
		h16.43c0.092,0,0.125-0.122,0.045-0.168l-0.544-0.315c-1.86-1.076-3.003-3.064-2.995-5.213l0.017-4.505
		C59.188,20.635,59.397,19.741,59.796,18.926z"/>
	<path style="fill:#FFFFFF;" d="M257.51,18.926l6.655-13.587c0.958-1.955,2.466-3.996,4.622-4.303
		c0.139-0.02,0.116-0.178,0.01-0.178l-9.719,0c-0.092,0-0.125,0.122-0.045,0.168l1.131,0.654c1.364,0.789,1.885,2.499,1.192,3.914
		l-5.674,11.584c-0.055,0.111-0.213,0.112-0.269,0.001l-5.779-11.567c-0.708-1.418-0.191-3.142,1.181-3.935l1.125-0.65
		c0.08-0.046,0.047-0.168-0.045-0.168l-17.365,0c-0.09,0-0.121,0.114-0.044,0.161c2.354,1.43,4.258,3.498,5.487,5.968l6.868,13.799
		c0.413,0.83,0.628,1.745,0.628,2.672v2.595c0,2.141-1.141,4.119-2.995,5.191l-0.572,0.331c-0.08,0.046-0.047,0.168,0.045,0.168
		h16.43c0.092,0,0.125-0.122,0.045-0.168l-0.544-0.315c-1.86-1.076-3.003-3.064-2.995-5.213l0.017-4.505
		C256.903,20.635,257.112,19.741,257.51,18.926z"/>
	<path style="fill:#FFFFFF;" d="M147.585,11.226l0-10.128c0-0.132-0.107-0.24-0.24-0.24h-26.148c-0.092,0-0.125,0.122-0.045,0.168
		l0.571,0.33c1.853,1.072,2.995,3.05,2.995,5.191v19.506c0,2.141-1.141,4.119-2.995,5.191l-0.571,0.33
		c-0.08,0.046-0.047,0.168,0.045,0.168h26.148c0.132,0,0.24-0.107,0.24-0.24l0-10.128c0-0.093-0.121-0.123-0.165-0.04
		c-2.633,4.958-6.664,9.05-12.945,9.156c-0.135,0.002-0.251-0.11-0.251-0.246l0-13.819c0-0.137,0.118-0.253,0.255-0.248
		c2.886,0.119,5.093,2.251,6.808,5.127c0.047,0.078,0.164,0.049,0.164-0.042V9.931c0-0.091-0.118-0.121-0.164-0.042
		c-1.715,2.875-3.922,5.008-6.808,5.127c-0.137,0.006-0.255-0.11-0.255-0.248l0-12.411c0-0.136,0.116-0.248,0.251-0.246
		c6.281,0.106,10.312,4.199,12.945,9.156C147.464,11.349,147.585,11.319,147.585,11.226z"/>
	<path style="fill:#FFFFFF;" d="M215.09,17.841l0.566,0.327c1.853,1.072,2.995,3.05,2.995,5.191v8.143
		c0,0.077-0.093,0.118-0.152,0.069c-9.107-7.714-12.544-16.741-13.059-24.149c-0.162-2.334,0.991-5.612,3.774-5.534
		c4.505,0.126,9.482,7.128,12.905,12.95c0.067,0.114,0.236,0.088,0.27-0.04l3.204-11.992c0.029-0.11-0.016-0.224-0.118-0.275
		C223.3,1.429,219.689,0,214.361,0c-11.444,0-15.999,8.967-15.999,15.914c0,6.947,4.127,16.686,17.544,16.686
		c6.848,0,11.047-3.344,11.672-3.875c0.053-0.045,0.081-0.11,0.081-0.18V17.912c0-0.132-0.107-0.24-0.24-0.24l-12.284,0
		C215.043,17.673,215.01,17.795,215.09,17.841z"/>
	<path style="fill:#FFFFFF;" d="M186.746,26.077l-4.791-7.543c-0.05-0.079-0.015-0.18,0.072-0.213
		c3.595-1.379,6.089-4.979,5.776-9.127c-0.358-4.76-4.534-8.336-9.308-8.336l-19.879,0c-0.092,0-0.125,0.122-0.045,0.168l0.571,0.33
		c1.853,1.072,2.995,3.05,2.995,5.191v19.506c0,2.141-1.141,4.119-2.995,5.191l-0.571,0.33c-0.08,0.046-0.047,0.168,0.045,0.168
		h16.55c0.092,0,0.125-0.122,0.045-0.168l-0.572-0.331c-1.853-1.071-2.994-3.049-2.995-5.19l-0.001-7.126h1.345
		c0.053,0,0.103,0.029,0.13,0.075l6.507,11.243c0.536,0.926,1.525,1.496,2.595,1.496l10.283,0c0.095,0,0.12-0.123,0.034-0.165
		C188.728,29.712,186.746,26.077,186.746,26.077z M178.325,10.997c0,3.658-2.94,6.629-6.585,6.68
		c-0.051,0.001-0.096-0.042-0.096-0.094V2.203c0-0.051,0.044-0.095,0.096-0.094c3.646,0.051,6.585,3.022,6.585,6.68V10.997z"/>
</g>
<g>
</g>
<g>
</g>
<g>
</g>
<g>
</g>
<g>
</g>
<g>
</g>
</svg>
