<svg xmlns="http://www.w3.org/2000/svg" width="243.842" height="267.763" viewBox="0 0 243.842 267.763"><defs><style>.a{fill:#3c3c3b;}.b{fill:#96694c;}</style></defs><g transform="translate(-28.347 -28.346)"><g transform="translate(78.644 110.953)"><g transform="translate(0.001)"><path class="a" d="M85.657,136.22,106.873,98.6a.193.193,0,0,0-.169-.288H73.661a.309.309,0,0,0-.309.309v15.634a.115.115,0,0,0,.227.033c.9-3.277,4.867-13.938,18.309-14.147a.2.2,0,0,1,.179.3l-21.1,37.411a.193.193,0,0,0,.169.288H105.9a.309.309,0,0,0,.309-.309V121.846a.115.115,0,0,0-.221-.048c-1.113,2.783-6.6,14.489-20.147,14.718A.2.2,0,0,1,85.657,136.22Z" transform="translate(-70.944 -98.307)"/><path class="a" d="M140.8,121.607l8.582-17.52c1.235-2.521,3.181-5.153,5.959-5.548.179-.026.15-.23.012-.23H142.819a.116.116,0,0,0-.058.216l1.458.843a3.865,3.865,0,0,1,1.536,5.047L138.44,119.35a.193.193,0,0,1-.346,0l-7.452-14.915a3.867,3.867,0,0,1,1.523-5.075l1.45-.838a.116.116,0,0,0-.058-.216H111.165a.111.111,0,0,0-.057.208,18.8,18.8,0,0,1,7.075,7.7L127.039,124a7.732,7.732,0,0,1,.81,3.445V130.8a7.733,7.733,0,0,1-3.861,6.694l-.737.426a.116.116,0,0,0,.058.216h21.185a.116.116,0,0,0,.058-.216l-.7-.406a7.729,7.729,0,0,1-3.861-6.722l.021-5.808A7.733,7.733,0,0,1,140.8,121.607Z" transform="translate(-63.695 -98.307)"/></g><g transform="translate(79.038 110.161)"><path class="a" d="M167.629,214.9l8.582-17.52c1.235-2.521,3.181-5.153,5.959-5.548.179-.026.15-.23.012-.23H169.649a.116.116,0,0,0-.058.216l1.458.843a3.865,3.865,0,0,1,1.536,5.047l-7.316,14.937a.193.193,0,0,1-.346,0l-7.452-14.915A3.867,3.867,0,0,1,159,192.658l1.45-.838a.116.116,0,0,0-.058-.216H138a.111.111,0,0,0-.057.208,18.8,18.8,0,0,1,7.075,7.7l8.856,17.793a7.732,7.732,0,0,1,.81,3.445v3.346a7.733,7.733,0,0,1-3.861,6.694l-.737.426a.116.116,0,0,0,.058.216h21.185a.116.116,0,0,0,.058-.216l-.7-.406a7.729,7.729,0,0,1-3.861-6.722l.021-5.808A7.73,7.73,0,0,1,167.629,214.9Z" transform="translate(-137.882 -191.604)"/></g><g transform="translate(0.001 174.191)"><path class="a" d="M79.193,248.845a2.779,2.779,0,0,1-.384,1.383,2.983,2.983,0,0,1-1.178,1.122,4.015,4.015,0,0,1-1.972.442H72.8v4.893h-1.85V245.916h4.714a4.089,4.089,0,0,1,1.965.434,2.917,2.917,0,0,1,1.187,1.112A2.8,2.8,0,0,1,79.193,248.845Zm-1.849-.017a2.748,2.748,0,0,0-.32-1.319,2.473,2.473,0,0,0-.834-.933,1.943,1.943,0,0,0-1.072-.335H72.794v5.22h2.324a1.907,1.907,0,0,0,1.072-.344,2.517,2.517,0,0,0,.834-.949A2.815,2.815,0,0,0,77.344,248.829Z" transform="translate(-70.945 -245.817)"/><path class="a" d="M92.408,256.685h-1.9l-.475-2.308a4.275,4.275,0,0,0-.811-1.866,1.782,1.782,0,0,0-1.333-.719H85.961v4.893h-1.85V245.916h4.714a4.089,4.089,0,0,1,1.965.434,2.917,2.917,0,0,1,1.187,1.112,2.705,2.705,0,0,1-.262,3.143,3.1,3.1,0,0,1-1.89,1.088,2.974,2.974,0,0,1,1.309.835,2.465,2.465,0,0,1,.654,1.195Zm-6.447-5.221h2.324a1.907,1.907,0,0,0,1.072-.344,2.517,2.517,0,0,0,.834-.949,2.837,2.837,0,0,0,.32-1.341,2.748,2.748,0,0,0-.32-1.319,2.473,2.473,0,0,0-.834-.933,1.943,1.943,0,0,0-1.072-.335H85.961Z" transform="translate(-68.565 -245.817)"/><path class="a" d="M108.067,251.315a5.318,5.318,0,0,1-.737,2.732,5.542,5.542,0,0,1-1.988,2,5.222,5.222,0,0,1-2.725.744,5.29,5.29,0,0,1-2.725-.736,5.5,5.5,0,0,1-1.988-2,5.5,5.5,0,0,1,0-5.5,5.5,5.5,0,0,1,1.988-2,5.288,5.288,0,0,1,2.725-.736,5.226,5.226,0,0,1,2.725.745,5.548,5.548,0,0,1,1.988,2A5.33,5.33,0,0,1,108.067,251.315Zm-1.932,0a7.512,7.512,0,0,0-.442-2.938,4.133,4.133,0,0,0-1.242-1.612,2.972,2.972,0,0,0-1.834-.589,2.923,2.923,0,0,0-1.833.589,4,4,0,0,0-1.252,1.612,10.148,10.148,0,0,0,0,5.875,4.006,4.006,0,0,0,1.252,1.612,2.915,2.915,0,0,0,1.833.606,2.964,2.964,0,0,0,1.834-.606,4.125,4.125,0,0,0,1.242-1.612A7.521,7.521,0,0,0,106.135,251.315Z" transform="translate(-66.205 -245.832)"/><path class="a" d="M120.9,248.845a2.78,2.78,0,0,1-.384,1.383,2.983,2.983,0,0,1-1.178,1.122,4.015,4.015,0,0,1-1.972.442H114.5v4.893h-1.85V245.916h4.714a4.088,4.088,0,0,1,1.965.434,2.917,2.917,0,0,1,1.187,1.112A2.783,2.783,0,0,1,120.9,248.845Zm-1.849-.017a2.748,2.748,0,0,0-.32-1.319,2.473,2.473,0,0,0-.834-.933,1.943,1.943,0,0,0-1.072-.335H114.5v5.22h2.324a1.907,1.907,0,0,0,1.072-.344,2.517,2.517,0,0,0,.834-.949A2.815,2.815,0,0,0,119.048,248.829Z" transform="translate(-63.407 -245.817)"/><path class="a" d="M132.636,246.243h-4.958v4.893h3.731v.327h-3.731v4.893h4.958v.327h-6.807V245.915h6.807Z" transform="translate(-61.024 -245.817)"/><path class="a" d="M146.281,256.685h-1.9l-.475-2.308a4.275,4.275,0,0,0-.811-1.866,1.782,1.782,0,0,0-1.333-.719h-1.931v4.893h-1.85V245.916H142.7a4.088,4.088,0,0,1,1.965.434,2.918,2.918,0,0,1,1.187,1.112,2.705,2.705,0,0,1-.262,3.143,3.1,3.1,0,0,1-1.889,1.088,2.974,2.974,0,0,1,1.309.835,2.465,2.465,0,0,1,.654,1.195Zm-6.447-5.221h2.324a1.907,1.907,0,0,0,1.072-.344,2.517,2.517,0,0,0,.834-.949,2.837,2.837,0,0,0,.32-1.341,2.748,2.748,0,0,0-.32-1.319,2.473,2.473,0,0,0-.834-.933,1.942,1.942,0,0,0-1.072-.335h-2.324Z" transform="translate(-58.827 -245.817)"/><path class="a" d="M158.977,245.915v.327h-3.225v10.441H153.9V246.242h-3.225v-.327Z" transform="translate(-56.532 -245.817)"/><path class="a" d="M172.735,245.915h.377l-3.977,7.167v3.6h-1.85v-3.6l-3.911-7.167h2.093l3.633,6.546Z" transform="translate(-54.238 -245.817)"/></g><g transform="translate(92.266 36.726)"><path class="a" d="M149.085,129.411h26.241V132.5H149.085Z" transform="translate(-149.085 -129.411)"/></g><g transform="translate(0 148.007)"><path class="a" d="M70.944,223.656H97.185v3.085H70.944Z" transform="translate(-70.944 -223.656)"/></g><g transform="translate(0.001 55.082)"><g transform="translate(0 0)"><path class="a" d="M100.553,145.173l.723.417a7.732,7.732,0,0,1,3.865,6.695V166.44a.194.194,0,0,1-.344.123L87.283,145.1a.386.386,0,0,0-.3-.142H71.061a.116.116,0,0,0-.058.216l.738.427a7.731,7.731,0,0,1,3.861,6.691l.006,25.149a7.729,7.729,0,0,1-3.865,6.7l-.738.426a.116.116,0,0,0,.058.216H82.97a.116.116,0,0,0,.058-.216l-.73-.422a7.732,7.732,0,0,1-3.865-6.695V153.924a.193.193,0,0,1,.34-.125l26.2,30.845a.386.386,0,0,0,.3.136h2.389a.309.309,0,0,0,.309-.309V152.294a7.73,7.73,0,0,1,3.865-6.695l.739-.426a.116.116,0,0,0-.058-.216h-11.9A.116.116,0,0,0,100.553,145.173Z" transform="translate(-70.945 -144.957)"/></g><path class="a" d="M149.974,144.958H116.258a.116.116,0,0,0-.058.216l.737.426a7.731,7.731,0,0,1,3.861,6.693v25.151a7.729,7.729,0,0,1-3.861,6.693l-.737.426a.116.116,0,0,0,.058.216h33.715a.309.309,0,0,0,.309-.309V171.411a.112.112,0,0,0-.213-.052c-3.395,6.393-8.592,11.669-16.691,11.806a.32.32,0,0,1-.324-.316V165.031a.321.321,0,0,1,.329-.319c3.721.153,6.567,2.9,8.779,6.61a.113.113,0,0,0,.211-.054v-14.61a.112.112,0,0,0-.211-.054c-2.212,3.708-5.057,6.456-8.779,6.61a.322.322,0,0,1-.329-.319v-16a.32.32,0,0,1,.324-.316c8.1.137,13.3,5.414,16.691,11.806a.112.112,0,0,0,.213-.052V145.271A.309.309,0,0,0,149.974,144.958Z" transform="translate(-62.775 -144.957)"/><path class="a" d="M193.394,177.476l-6.178-9.726a.186.186,0,0,1,.093-.275,11.64,11.64,0,0,0,7.448-11.769,11.907,11.907,0,0,0-12-10.75H157.123a.116.116,0,0,0-.058.216l.737.426a7.732,7.732,0,0,1,3.862,6.694v25.153a7.735,7.735,0,0,1-3.861,6.694l-.737.426a.116.116,0,0,0,.058.216h21.34a.116.116,0,0,0,.058-.216l-.738-.426a7.729,7.729,0,0,1-3.861-6.691v-9.189h1.735a.2.2,0,0,1,.168.1l8.39,14.5a3.866,3.866,0,0,0,3.346,1.929h13.26a.11.11,0,0,0,.044-.213A18.888,18.888,0,0,1,193.394,177.476ZM182.535,158.03a8.615,8.615,0,0,1-8.492,8.614.122.122,0,0,1-.123-.122V146.689a.124.124,0,0,1,.123-.122,8.616,8.616,0,0,1,8.492,8.614Z" transform="translate(-55.388 -144.957)"/></g><path class="a" d="M120.045,213.671l.73.422a7.732,7.732,0,0,1,3.862,6.694v10.5a.12.12,0,0,1-.2.089c-11.745-9.948-16.178-21.59-16.841-31.144-.209-3.01,1.278-7.237,4.867-7.136,5.809.163,12.228,9.192,16.643,16.7a.19.19,0,0,0,.348-.052l4.132-15.464a.3.3,0,0,0-.152-.354,30.852,30.852,0,0,0-14.332-3.262c-14.758,0-20.634,11.563-20.634,20.523s5.323,21.519,22.625,21.519a23.9,23.9,0,0,0,15.052-5,.3.3,0,0,0,.105-.233V213.763a.309.309,0,0,0-.309-.309H120.1A.117.117,0,0,0,120.045,213.671Z" transform="translate(-65.968 -81.613)"/></g><g transform="translate(28.347 28.346)"><path class="b" d="M33.883,165.5l-.666-2.034,11.845-3.876.666,2.034Z" transform="translate(-27.467 -4.622)"/><path class="b" d="M30.029,150.841,42.188,148.1l.083.37L35.091,159.1l9.111-2.052.083.37-12.159,2.738-.083-.37,7.18-10.626-9.111,2.051Z" transform="translate(-28.043 -6.699)"/><path class="b" d="M41.471,141.754a6.032,6.032,0,0,1-.286,2.523,3.562,3.562,0,0,1-1.377,1.91l-.325-.195a3.342,3.342,0,0,0,1.331-1.81,5.7,5.7,0,0,0,.281-2.39,3.141,3.141,0,0,0-.809-1.964,2.067,2.067,0,0,0-1.771-.573,1.994,1.994,0,0,0-1.439.917,9,9,0,0,0-1.105,2.521,21.537,21.537,0,0,1-.841,2.323,3.719,3.719,0,0,1-.949,1.334,2.536,2.536,0,0,1-1.437.574,3.1,3.1,0,0,1-1.933-.384,3.612,3.612,0,0,1-1.343-1.416,5.355,5.355,0,0,1-.619-2.05,5.211,5.211,0,0,1,.339-2.471,3.57,3.57,0,0,1,1.418-1.782l.327.214a3.378,3.378,0,0,0-1.379,1.7A4.769,4.769,0,0,0,29.223,143a3.593,3.593,0,0,0,.738,2.019,1.771,1.771,0,0,0,1.621.6,1.545,1.545,0,0,0,.973-.451,3.132,3.132,0,0,0,.649-1.018q.262-.627.686-1.869l.207-.592a10.429,10.429,0,0,1,1.364-2.872,2.649,2.649,0,0,1,1.928-1.082,3.343,3.343,0,0,1,1.9.35,3.688,3.688,0,0,1,1.464,1.393A5.282,5.282,0,0,1,41.471,141.754Z" transform="translate(-28.261 -8.577)"/><path class="b" d="M28.974,127.777a3.363,3.363,0,0,1,1.308-1.352,3.1,3.1,0,0,1,3.2.052,3.428,3.428,0,0,1,1.275,1.385,4.64,4.64,0,0,1,.475,2.291l-.054,3.314,5.664.092-.035,2.141-12.462-.2.087-5.455A4.722,4.722,0,0,1,28.974,127.777Zm5.494,1.748a2.934,2.934,0,0,0-1.084-.985,3.279,3.279,0,0,0-1.546-.394,3.191,3.191,0,0,0-1.53.345,2.856,2.856,0,0,0-1.1.949,2.253,2.253,0,0,0-.409,1.234l-.044,2.69,6.041.1.045-2.69A2.224,2.224,0,0,0,34.468,129.525Z" transform="translate(-28.347 -10.693)"/><path class="b" d="M28.856,122.144l.218-2.129,12.4,1.279-.221,2.13Z" transform="translate(-28.255 -11.776)"/><path class="b" d="M43.706,109.638l-.429,2.155-2.726.018a4.948,4.948,0,0,0-2.3.5,2.073,2.073,0,0,0-1.119,1.351l-.435,2.191,5.554,1.105-.418,2.1-12.224-2.431,1.064-5.35a4.731,4.731,0,0,1,.938-2.132,3.364,3.364,0,0,1,1.53-1.1,3.208,3.208,0,0,1,1.657-.124,3.245,3.245,0,0,1,1.85,1.131,3.6,3.6,0,0,1,.809,2.392,3.442,3.442,0,0,1,1.242-1.3,2.86,2.86,0,0,1,1.5-.473Zm-7.382,6.141.524-2.638a2.223,2.223,0,0,0-.148-1.3,2.933,2.933,0,0,0-.889-1.162,3.261,3.261,0,0,0-1.451-.665,3.175,3.175,0,0,0-1.568.065,2.869,2.869,0,0,0-1.248.737,2.256,2.256,0,0,0-.622,1.141L30.4,114.6Z" transform="translate(-28.119 -13.972)"/><path class="b" d="M35.2,96.611l-1.766,5.461,5.389,1.744,1.328-4.11.36.117-1.328,4.11,5.388,1.743,1.766-5.461.36.117-2.425,7.5-11.858-3.835,2.425-7.5Z" transform="translate(-27.612 -16.027)"/><path class="b" d="M66.754,65.515a6.227,6.227,0,0,1-1.567,5.05,6.1,6.1,0,0,1-2.75,1.762,6.369,6.369,0,0,1-3.259.15,6.362,6.362,0,0,1-4.71-4.278,6.346,6.346,0,0,1-.163-3.258,6.1,6.1,0,0,1,1.489-2.908,6.164,6.164,0,0,1,2.073-1.508,6.311,6.311,0,0,1,2.481-.549l.045.374a5.771,5.771,0,0,0-4.318,1.936,3.488,3.488,0,0,0-.908,2.042,4.616,4.616,0,0,0,.407,2.327,11.759,11.759,0,0,0,5.035,4.572,4.612,4.612,0,0,0,2.356.182,3.479,3.479,0,0,0,1.944-1.1,5.794,5.794,0,0,0,1.472-4.8Z" transform="translate(-23.68 -22.629)"/><path class="b" d="M68.3,51.51a6.444,6.444,0,0,1,3.255.288,6.3,6.3,0,0,1,4.08,4.834,6.43,6.43,0,0,1-.262,3.258,6.224,6.224,0,0,1-4.813,4.076,6.357,6.357,0,0,1-3.249-.281,6.373,6.373,0,0,1-4.107-4.864,6.376,6.376,0,0,1,.268-3.251A6.227,6.227,0,0,1,68.3,51.51Zm6.042,6.525a8.693,8.693,0,0,0-1.8-2.928,8.71,8.71,0,0,0-2.585-2.267,4.777,4.777,0,0,0-2.3-.5,3.439,3.439,0,0,0-2.06.847,3.387,3.387,0,0,0-1.181,1.89,4.644,4.644,0,0,0,.1,2.36,8.869,8.869,0,0,0,1.81,2.922A8.852,8.852,0,0,0,68.9,62.636a4.628,4.628,0,0,0,2.311.491,3.377,3.377,0,0,0,2.073-.834,3.433,3.433,0,0,0,1.169-1.9A4.811,4.811,0,0,0,74.345,58.035Z" transform="translate(-22.064 -24.175)"/><path class="b" d="M81.134,55.916l4.814-3.124.207.318L79.545,57.4,72.759,46.945l1.8-1.165Z" transform="translate(-20.319 -25.195)"/><path class="b" d="M89.567,50.9l5.121-2.589.171.339L87.827,52.2,82.205,41.079l1.91-.966Z" transform="translate(-18.612 -26.219)"/><path class="b" d="M103.859,45.214l-2.731-2.856-4.95,1.8-.329,3.97-.392.143,1.131-13.794,9.46,9.943Zm-7.65-1.472,4.646-1.688-4.143-4.358Z" transform="translate(-16.216 -27.238)"/><path class="b" d="M115.09,36.874a3.153,3.153,0,0,1,1.053,1.722,2.915,2.915,0,0,1-.008,1.324,3.809,3.809,0,0,1-.61,1.324,4.106,4.106,0,0,1-1.267,1.135,6.891,6.891,0,0,1-1.961.73l-4.672,1.067-2.775-12.151,4.192-.958a6.12,6.12,0,0,1,1.674-.158,3.714,3.714,0,0,1,1.347.285,3.192,3.192,0,0,1,1,.772,2.565,2.565,0,0,1,.581,1.139,3.311,3.311,0,0,1-.555,2.847A4.159,4.159,0,0,1,115.09,36.874Zm-8.069-4.958,1.171,5.133,2.05-.468a1.646,1.646,0,0,0,1.2-1.08,3.18,3.18,0,0,0,.115-1.921,3.416,3.416,0,0,0-.887-1.711,1.565,1.565,0,0,0-1.546-.435Zm6.925,9.435a3.925,3.925,0,0,0,.13-2.282,3.368,3.368,0,0,0-1.064-1.846,2.313,2.313,0,0,0-2.149-.394l-2.585.59,1.348,5.91,2.567-.586A2.246,2.246,0,0,0,113.946,41.352Z" transform="translate(-14.519 -27.884)"/><path class="b" d="M126.12,29.338a6.428,6.428,0,0,1,2.5,2.1,6.292,6.292,0,0,1,.58,6.3,6.423,6.423,0,0,1-2.079,2.521,6.226,6.226,0,0,1-6.28.587,6.356,6.356,0,0,1-2.5-2.09,6.362,6.362,0,0,1-.582-6.338,6.354,6.354,0,0,1,2.079-2.511,6.119,6.119,0,0,1,3.063-1.137A6.049,6.049,0,0,1,126.12,29.338Zm1.22,8.808a8.73,8.73,0,0,0,.2-3.432,8.718,8.718,0,0,0-.821-3.339,4.782,4.782,0,0,0-1.6-1.726,3.441,3.441,0,0,0-2.175-.485,3.372,3.372,0,0,0-2.05.874,4.614,4.614,0,0,0-1.272,1.991,8.861,8.861,0,0,0-.19,3.431,8.865,8.865,0,0,0,.812,3.339,4.612,4.612,0,0,0,1.614,1.726,3.372,3.372,0,0,0,2.176.5,3.424,3.424,0,0,0,2.049-.891A4.77,4.77,0,0,0,127.34,38.147Z" transform="translate(-12.291 -28.275)"/><path class="b" d="M140.944,41.181l-2.2-.087-.443-2.691a4.951,4.951,0,0,0-.853-2.194,2.067,2.067,0,0,0-1.509-.894l-2.234-.089-.223,5.659-2.138-.085.491-12.455,5.453.216a4.721,4.721,0,0,1,2.251.592,3.369,3.369,0,0,1,1.321,1.341,3.214,3.214,0,0,1,.383,1.616,3.25,3.25,0,0,1-.829,2,3.593,3.593,0,0,1-2.235,1.172,3.428,3.428,0,0,1,1.475,1.025,2.849,2.849,0,0,1,.7,1.412Zm-7.218-6.332,2.689.106a2.211,2.211,0,0,0,1.255-.348,2.909,2.909,0,0,0,1.008-1.06,3.28,3.28,0,0,0,.432-1.537,3.19,3.19,0,0,0-.309-1.539,2.879,2.879,0,0,0-.922-1.118,2.244,2.244,0,0,0-1.224-.437l-2.689-.106Z" transform="translate(-9.729 -28.346)"/><path class="b" d="M151.1,42.693l-.973-3.832-5.193-.869L142.7,41.286l-.412-.07,7.774-11.451L153.4,43.076Zm-5.937-5.045,4.878.816-1.464-5.834Z" transform="translate(-7.752 -28.089)"/><path class="b" d="M164.689,33.683l-.1.365-3.594-1-3.242,11.642-2.063-.575,3.244-11.641-3.594-1,.1-.365Z" transform="translate(-5.393 -27.847)"/><path class="b" d="M175.007,37.942l-5.326-2.14-2.112,5.256,4.006,1.611-.141.352-4.008-1.611-2.112,5.256,5.326,2.141-.142.352-7.311-2.939,4.647-11.564,7.311,2.938Z" transform="translate(-3.973 -27.206)"/><path class="b" d="M214.013,68.077l-3.748-4.346-4.289,3.7L208.8,70.7l-.287.248-2.821-3.271-4.288,3.7,3.748,4.348-.287.248L199.715,70l9.439-8.139,5.147,5.968Z" transform="translate(2.629 -22.287)"/><path class="b" d="M214.964,77.791l6.579.24.267.391-7.027-.256-3.3,7.242-1.409-2.067,2.556-5.637-6.553-.234-.267-.392,7,.251,3.311-7.251,1.407,2.066Z" transform="translate(3.732 -20.803)"/><path class="b" d="M227.174,88.953l-.337.175-1.722-3.311L214.394,91.4l-.988-1.9,10.721-5.579-1.724-3.31.337-.175Z" transform="translate(5.104 -18.931)"/><path class="b" d="M220.268,104.8l-.777-2.055,2.3-1.458a4.934,4.934,0,0,0,1.69-1.641,2.067,2.067,0,0,0,.233-1.739l-.789-2.09-5.3,2-.757-2,11.659-4.407,1.928,5.1a4.714,4.714,0,0,1,.334,2.3,3.375,3.375,0,0,1-.718,1.74,3.215,3.215,0,0,1-1.341.982,3.254,3.254,0,0,1-2.169.02,3.6,3.6,0,0,1-1.952-1.6,3.439,3.439,0,0,1-.368,1.759,2.864,2.864,0,0,1-1.025,1.2Zm3.014-9.118.952,2.516a2.2,2.2,0,0,0,.809,1.02,2.947,2.947,0,0,0,1.371.516,3.3,3.3,0,0,0,1.583-.2,3.2,3.2,0,0,0,1.3-.884,2.871,2.871,0,0,0,.667-1.286,2.238,2.238,0,0,0-.076-1.3l-.952-2.516Z" transform="translate(5.73 -16.946)"/><path class="b" d="M222.678,114.121l3.151-2.386-1.22-5.122-3.906-.783-.1-.405,13.574,2.705-10.962,8.258Zm2.338-7.431,1.147,4.809,4.8-3.618Z" transform="translate(6.405 -14.413)"/><path class="b" d="M235.741,125a6.446,6.446,0,0,1-2.072,2.527,6.3,6.3,0,0,1-6.293.649,6.432,6.432,0,0,1-2.543-2.051,6.231,6.231,0,0,1-.657-6.273,6.36,6.36,0,0,1,2.063-2.527,6.371,6.371,0,0,1,6.331-.653,6.358,6.358,0,0,1,2.534,2.052,6.232,6.232,0,0,1,.638,6.276Zm-8.8,1.317a11.568,11.568,0,0,0,6.765-.7,4.78,4.78,0,0,0,1.71-1.624,3.434,3.434,0,0,0,.459-2.18,3.385,3.385,0,0,0-.9-2.042,4.631,4.631,0,0,0-2-1.249,11.748,11.748,0,0,0-6.765.7,4.627,4.627,0,0,0-1.709,1.633,3.373,3.373,0,0,0-.479,2.183,3.436,3.436,0,0,0,.914,2.038A4.81,4.81,0,0,0,226.945,126.316Z" transform="translate(6.949 -12.481)"/><path class="b" d="M224.076,139.929l.064-2.2,2.685-.473a4.926,4.926,0,0,0,2.184-.876,2.065,2.065,0,0,0,.877-1.52l.065-2.234-5.662-.161.061-2.14,12.458.354-.156,5.453a4.724,4.724,0,0,1-.566,2.259,3.363,3.363,0,0,1-1.327,1.335,3.208,3.208,0,0,1-1.613.4,3.247,3.247,0,0,1-2.014-.805,3.6,3.6,0,0,1-1.2-2.223,3.441,3.441,0,0,1-1.01,1.487,2.859,2.859,0,0,1-1.4.718Zm6.252-7.288-.076,2.689a2.2,2.2,0,0,0,.363,1.252,2.931,2.931,0,0,0,1.07,1,3.3,3.3,0,0,0,1.543.413,3.164,3.164,0,0,0,1.534-.326,2.847,2.847,0,0,0,1.106-.935,2.247,2.247,0,0,0,.424-1.229l.077-2.689Z" transform="translate(7.033 -9.912)"/><path class="b" d="M234.32,150.332a6.3,6.3,0,0,1-2.587,1.922,6.193,6.193,0,0,1-6.2-.952,6.3,6.3,0,0,1-1.888-2.609,6.2,6.2,0,0,1-.344-3.253l.549-3.577,12.32,1.893-.549,3.577A6.218,6.218,0,0,1,234.32,150.332Zm-9.4-1.443a4.57,4.57,0,0,0,1.442.9,12.834,12.834,0,0,0,5.037.775,4.573,4.573,0,0,0,1.648-.427,5.094,5.094,0,0,0,1.187-.871,3.328,3.328,0,0,0,1.015-1.991l.223-1.459L223.9,144.04l-.223,1.459a3.329,3.329,0,0,0,.37,2.2A5.065,5.065,0,0,0,224.922,148.89Z" transform="translate(6.879 -7.827)"/><path class="b" d="M233.818,156.482l-.523,2.078-12.085-3.046.523-2.075Z" transform="translate(6.514 -5.734)"/><path class="b" d="M229.288,172.032l-11.743-4.176.126-.358,11.745-5.152-8.8-3.129.126-.357,11.743,4.176-.126.358-11.743,5.152,8.8,3.129Z" transform="translate(5.852 -4.754)"/><path class="b" d="M213.185,177.133l3.946.216,2.378-4.7-2.474-3.123.188-.372,8.611,10.837-13.7-.782Zm6.586-4.159-2.235,4.41,6.005.345Z" transform="translate(4.874 -2.893)"/><path class="b" d="M206.128,188.019l1.229-1.822,2.521,1.039a4.938,4.938,0,0,0,2.315.43,2.074,2.074,0,0,0,1.554-.814L215,185l-4.7-3.168,1.2-1.775,10.334,6.969-3.051,4.522a4.711,4.711,0,0,1-1.688,1.6,3.374,3.374,0,0,1-1.836.418,3.215,3.215,0,0,1-1.575-.525,3.258,3.258,0,0,1-1.27-1.759,3.6,3.6,0,0,1,.181-2.519,3.431,3.431,0,0,1-1.65.717,2.852,2.852,0,0,1-1.569-.145Zm9.183-2.809-1.5,2.23a2.207,2.207,0,0,0-.364,1.25,2.926,2.926,0,0,0,.37,1.417,3.3,3.3,0,0,0,1.082,1.175,3.194,3.194,0,0,0,1.47.546,2.855,2.855,0,0,0,1.435-.2,2.245,2.245,0,0,0,1.015-.811l1.5-2.23Z" transform="translate(3.788 -0.923)"/><path class="b" d="M207.77,204.456l-.286.329-3.258-8.911-3.15-2.729,1.4-1.619,3.15,2.729,9.235,2.01-1.588,1.833-8.48-1.782Z" transform="translate(2.875 1.15)"/></g><circle class="b" cx="1.941" cy="1.941" r="1.941" transform="translate(212.159 52.729)"/><circle class="b" cx="1.941" cy="1.941" r="1.941" transform="translate(48.544 91.197)"/></g></svg>